<svg width="18" height="18" viewBox="0 0 18 18" fill="none" xmlns="http://www.w3.org/2000/svg">
<g id="Icons">
<path id="Vector (Stroke)" fill-rule="evenodd" clip-rule="evenodd" d="M13.4625 3.78784C13.2636 3.78784 13.0729 3.86683 12.9322 4.00743C12.7271 4.21247 12.4222 4.28089 12.1492 4.18312C11.3802 3.9078 10.5508 3.84695 9.74994 4.00708C8.95462 4.1661 8.21718 4.53708 7.61551 5.08065L6.0378 6.65985C6.01642 6.68126 5.99375 6.70135 5.96994 6.72002C5.57589 7.02893 5.12467 7.25525 4.64329 7.38657L6.0196 8.76276C6.02567 8.76844 6.03166 8.77424 6.03758 8.78016C6.04348 8.78606 6.04927 8.79204 6.05493 8.79808L9.20701 11.9499C9.21132 11.954 9.21559 11.9582 9.21983 11.9624C9.22405 11.9666 9.22821 11.9709 9.23231 11.9752L10.6139 13.3566C10.7452 12.875 10.9717 12.4235 11.2808 12.0293C11.2994 12.0055 11.3195 11.9828 11.3409 11.9614L12.9194 10.3845C13.4629 9.78281 13.8339 9.04537 13.9929 8.25006C14.1531 7.44916 14.0922 6.61979 13.8169 5.85084C13.7191 5.57781 13.7875 5.27287 13.9926 5.06777C14.1332 4.92713 14.2122 4.73639 14.2122 4.53752C14.2122 4.33872 14.1332 4.14806 13.9927 4.00743C13.9927 4.00738 13.9926 4.00733 13.9926 4.00727M13.4625 3.78784C13.6613 3.78784 13.8519 3.86677 13.9926 4.00727L13.4625 3.78784ZM7.62867 12.4929L5.50699 10.3714C5.22586 10.6527 5.06793 11.0341 5.06793 11.4319C5.06793 11.8297 5.22599 12.2113 5.50733 12.4927C5.78867 12.774 6.17025 12.9321 6.56812 12.9321C6.96588 12.9321 7.34735 12.7741 7.62867 12.4929ZM4.44628 9.3108C3.88388 9.8734 3.56793 10.6363 3.56793 11.4319C3.56793 12.2276 3.88402 12.9907 4.44667 13.5533C5.00931 14.116 5.77242 14.4321 6.56812 14.4321C7.36373 14.4321 8.12675 14.116 8.68938 13.5535L10.8104 15.6744C11.0513 15.9152 11.4242 15.9635 11.7185 15.7919C12.0127 15.6204 12.1544 15.272 12.0635 14.9438C11.9694 14.6043 11.9564 14.2474 12.0255 13.9019C12.0918 13.5702 12.232 13.258 12.4355 12.9882L13.9926 11.4326C14.0009 11.4242 14.0091 11.4157 14.0171 11.4069C14.7502 10.6016 15.2503 9.61202 15.4638 8.54415C15.6495 7.61531 15.6123 6.65773 15.3579 5.74944C15.5874 5.39036 15.7122 4.97037 15.7122 4.53752C15.7122 3.9409 15.4752 3.36871 15.0534 2.94677L15.0532 2.94661C14.6313 2.5248 14.0591 2.28784 13.4625 2.28784C13.0296 2.28784 12.6096 2.41256 12.2506 2.64211C11.3423 2.38769 10.3847 2.35047 9.45584 2.53619C8.38798 2.7497 7.39836 3.24982 6.59308 3.98292C6.58433 3.99089 6.57576 3.99907 6.56739 4.00744L5.01107 5.56523C4.74138 5.7686 4.4292 5.90876 4.09763 5.97507C3.75227 6.04414 3.39551 6.03118 3.05607 5.93721C2.72781 5.84633 2.37952 5.98808 2.208 6.28235C2.03648 6.57663 2.08481 6.94954 2.32567 7.19038L4.44628 9.3108Z" fill="white"/>
</g>
</svg>
