<svg width="24" height="24" viewBox="0 0 24 24" fill="none" xmlns="http://www.w3.org/2000/svg">
<g id="Icons">
<path id="Vector (Stroke)" fill-rule="evenodd" clip-rule="evenodd" d="M6.81481 6.5333C6.66274 6.5333 6.53333 6.66271 6.53333 6.81478V14.2202C6.53361 14.2701 6.54697 14.319 6.5721 14.3622C6.59737 14.4056 6.63365 14.4415 6.67727 14.4664C6.8536 14.5669 6.99475 14.7054 7.09629 14.8656V10.2718C7.09629 9.42961 7.43086 8.62189 8.02639 8.02636C8.62193 7.43083 9.42964 7.09626 10.2719 7.09626H14.7044C14.5345 6.99197 14.3884 6.84385 14.2846 6.65725C14.252 6.59866 14.2263 6.55924 14.2073 6.5333H6.81481ZM15.9619 7.09626C16.5064 6.76198 16.6956 6.05466 16.3821 5.49084C16.2152 5.19074 15.9735 4.83569 15.596 4.56172C15.1926 4.26888 14.7249 4.1333 14.2222 4.1333H6.81481C5.33726 4.1333 4.13333 5.33723 4.13333 6.81478V14.2222L4.13333 14.2251C4.13447 14.6978 4.2604 15.1619 4.49838 15.5703C4.73636 15.9788 5.07796 16.3172 5.48865 16.5514C6.04793 16.8702 6.75541 16.69 7.09629 16.1517V16.6911C7.09629 17.1081 7.17843 17.521 7.33802 17.9063C7.49761 18.2916 7.73152 18.6417 8.02639 18.9365C8.32127 19.2314 8.67134 19.4653 9.05662 19.6249C9.4419 19.7845 9.85483 19.8666 10.2719 19.8666H16.6911C17.1081 19.8666 17.5211 19.7845 17.9063 19.6249C18.2916 19.4653 18.6417 19.2314 18.9366 18.9365C19.2314 18.6417 19.4654 18.2916 19.6249 17.9063C19.7845 17.521 19.8667 17.1081 19.8667 16.6911V10.2718C19.8667 9.8548 19.7845 9.44186 19.6249 9.05659C19.4654 8.67131 19.2314 8.32124 18.9366 8.02636C18.6417 7.73149 18.2916 7.49758 17.9063 7.33799C17.5211 7.1784 17.1081 7.09626 16.6911 7.09626H15.9619ZM10.2719 9.49626C10.0662 9.49626 9.86889 9.57797 9.72345 9.72342C9.578 9.86886 9.49629 10.0661 9.49629 10.2718V16.6911C9.49629 16.7929 9.51636 16.8938 9.55533 16.9879C9.59431 17.082 9.65143 17.1675 9.72345 17.2395C9.79547 17.3115 9.88097 17.3686 9.97506 17.4076C10.0692 17.4466 10.17 17.4666 10.2719 17.4666H16.6911C16.793 17.4666 16.8938 17.4466 16.9879 17.4076C17.082 17.3686 17.1675 17.3115 17.2395 17.2395C17.3115 17.1675 17.3687 17.082 17.4076 16.9879C17.4466 16.8938 17.4667 16.7929 17.4667 16.6911V10.2718C17.4667 10.17 17.4466 10.0691 17.4076 9.97503C17.3687 9.88094 17.3115 9.79544 17.2395 9.72342C17.1675 9.6514 17.082 9.59427 16.9879 9.5553C16.8938 9.51632 16.793 9.49626 16.6911 9.49626H10.2719Z" fill="#6971BE"/>
</g>
</svg>
