<svg width="18" height="18" viewBox="0 0 18 18" fill="none" xmlns="http://www.w3.org/2000/svg">
    <g id="Icons">
        <path id="Vector (Stroke)" fill-rule="evenodd" clip-rule="evenodd"
            d="M8.33336 2.99873C8.33401 2.63054 8.63302 2.3326 9.00121 2.33325C9.87589 2.33481 10.7417 2.50848 11.5493 2.84436C11.8893 2.98575 12.0503 3.37596 11.9089 3.71592C11.7675 4.05588 11.3773 4.21685 11.0373 4.07547C10.3912 3.80676 9.69858 3.66783 8.99883 3.66658C8.63064 3.66592 8.3327 3.36692 8.33336 2.99873ZM7.32276 3.2049C7.46358 3.54509 7.30196 3.93503 6.96176 4.07585C6.3147 4.3437 5.72672 4.73635 5.2314 5.23141C4.97098 5.49168 4.54887 5.49156 4.28859 5.23114C4.02831 4.97072 4.02843 4.54861 4.28885 4.28834C4.90801 3.66952 5.64298 3.1787 6.45181 2.8439C6.792 2.70308 7.18194 2.8647 7.32276 3.2049ZM12.7686 4.28839C13.0291 4.02811 13.4512 4.02823 13.7114 4.28865C14.3303 4.90781 14.8211 5.64278 15.1559 6.4516C15.2967 6.7918 15.1351 7.18174 14.7949 7.32256C14.4547 7.46338 14.0648 7.30175 13.9239 6.96156C13.6561 6.3145 13.2634 5.72652 12.7684 5.23119C12.5081 4.97077 12.5082 4.54866 12.7686 4.28839ZM3.71604 6.09106C4.056 6.23244 4.21698 6.62265 4.07559 6.96261C3.80688 7.60871 3.66795 8.30137 3.6667 9.00112C3.66605 9.36931 3.36704 9.66725 2.99885 9.6666C2.63066 9.66594 2.33272 9.36694 2.33338 8.99875C2.33493 8.12406 2.5086 7.25823 2.84448 6.45061C2.98587 6.11065 3.37608 5.94967 3.71604 6.09106ZM15.0012 8.33323C15.3694 8.33389 15.6674 8.6329 15.6667 9.00108C15.6651 9.87577 15.4915 10.7416 15.1556 11.5492C15.0142 11.8892 14.624 12.0502 14.284 11.9088C13.9441 11.7674 13.7831 11.3772 13.9245 11.0372C14.1932 10.3911 14.3321 9.69846 14.3334 8.99871C14.334 8.63052 14.633 8.33258 15.0012 8.33323ZM3.20502 10.6772C3.54522 10.5364 3.93516 10.698 4.07598 11.0382C4.34382 11.6853 4.73647 12.2732 5.23153 12.7686C5.4918 13.029 5.49169 13.4511 5.23127 13.7114C4.97085 13.9717 4.54874 13.9715 4.28846 13.7111C3.66964 13.092 3.17882 12.357 2.84402 11.5482C2.7032 11.208 2.86483 10.818 3.20502 10.6772ZM13.7115 12.7686C13.9718 13.029 13.9717 13.4511 13.7112 13.7114C13.0921 14.3302 12.3571 14.821 11.5483 15.1558C11.2081 15.2967 10.8181 15.135 10.6773 14.7948C10.5365 14.4546 10.6981 14.0647 11.0383 13.9239C11.6854 13.656 12.2734 13.2634 12.7687 12.7683C13.0291 12.5081 13.4512 12.5082 13.7115 12.7686ZM6.09118 14.2839C6.23257 13.944 6.62277 13.783 6.96273 13.9244C7.60883 14.1931 8.3015 14.332 9.00125 14.3333C9.36943 14.3339 9.66738 14.6329 9.66672 15.0011C9.66607 15.3693 9.36706 15.6672 8.99887 15.6666C8.12419 15.665 7.25836 15.4914 6.45073 15.1555C6.11077 15.0141 5.94979 14.6239 6.09118 14.2839Z"
            fill="#41F7B5" />
    </g>
</svg>