<svg width="24" height="24" viewBox="0 0 24 24" fill="none" xmlns="http://www.w3.org/2000/svg">
<g id="Icons" clip-path="url(#clip0_222_2173)">
<path id="Vector" fill-rule="evenodd" clip-rule="evenodd" d="M5.69612 0.00402081C5.48919 0.00746034 5.24732 0.0152968 5.15863 0.0214333C5.06995 0.0275697 4.90944 0.0367258 4.80194 0.0417777C4.69444 0.0468393 4.54273 0.0574312 4.46479 0.0653265C4.38685 0.0732218 4.29011 0.0823094 4.2498 0.0855242C3.90901 0.112728 3.31857 0.261615 2.95006 0.413257C2.36784 0.652852 1.88718 0.96928 1.44643 1.40316C1.10001 1.74417 0.810936 2.13625 0.581518 2.57625C0.326095 3.06611 0.122867 3.7679 0.0774933 4.31672C-0.00309045 5.29148 0.0041122 4.57576 0.00100456 11.9189C-0.00146788 17.7547 -0.000109585 18.4954 0.0135035 18.7393C0.021898 18.8898 0.032892 19.0987 0.0379346 19.2035C0.0429674 19.3083 0.0535606 19.4578 0.0614567 19.5357C0.0693529 19.6136 0.078451 19.7104 0.0816661 19.7507C0.108804 20.0905 0.258176 20.6828 0.409434 21.0503C0.500386 21.2712 0.571999 21.4176 0.689142 21.6219C1.12465 22.3814 1.77723 23.0039 2.57266 23.4185C3.06283 23.6741 3.76873 23.878 4.3182 23.9227C5.30736 24.0034 4.5626 23.9959 11.9163 23.999C17.7527 24.0015 18.4936 24.0001 18.7375 23.9865C18.888 23.9781 19.0968 23.9672 19.2017 23.9622C19.3065 23.9572 19.4318 23.9488 19.4802 23.9434C19.5285 23.9381 19.6231 23.9291 19.6903 23.9234C19.9951 23.8975 20.3081 23.8333 20.6773 23.7209C20.781 23.6894 20.9692 23.6233 21.0487 23.5906C21.6595 23.3392 22.162 23.0009 22.6175 22.5343C23.0289 22.1128 23.38 21.5806 23.5761 21.081C23.6351 20.9305 23.649 20.8922 23.6909 20.762C23.8198 20.3621 23.8942 20.014 23.9216 19.6823C23.9267 19.6205 23.9373 19.4907 23.9453 19.394C23.9532 19.2973 23.9645 19.1214 23.9704 19.0031C23.9762 18.8849 23.9852 18.7073 23.9903 18.6084C23.9958 18.4996 23.9997 15.8799 23.9999 11.9736C24.0004 6.28793 23.9986 5.48775 23.9854 5.25966C23.9772 5.11724 23.9662 4.91278 23.961 4.80529C23.9558 4.6978 23.9451 4.5461 23.9372 4.46818C23.9293 4.39025 23.9203 4.29351 23.917 4.25321C23.8899 3.91338 23.7405 3.32109 23.5893 2.95361C23.3639 2.40606 23.0739 1.9538 22.6742 1.52681C22.2773 1.10274 21.7602 0.730692 21.2404 0.495298C20.7721 0.283239 20.1611 0.120594 19.6854 0.081381C18.7506 0.00432364 18.9384 0.0082911 16.0794 0.00531082C9.75029 -0.00129465 6.04307 -0.0017541 5.69612 0.00402081ZM9.38522 5.48007C9.33147 5.49294 9.24572 5.51293 9.19466 5.52449C9.05798 5.55542 8.85383 5.6051 8.66206 5.65407C8.44248 5.71016 8.36561 5.73018 8.30048 5.74824C8.26286 5.75867 8.19689 5.77655 8.15389 5.78798C8.05522 5.8142 7.91856 5.85158 7.83629 5.87485C7.66601 5.92301 7.43564 5.98969 7.36232 6.01205C7.33007 6.02189 7.26411 6.04194 7.21574 6.05662C7.08745 6.09555 6.71121 6.22044 6.61473 6.25613C6.56904 6.27302 6.52287 6.28943 6.51212 6.29259C6.46811 6.30549 6.24282 6.40444 6.16789 6.44378C6.04326 6.50921 6.04022 6.5128 5.82164 6.8524C5.73124 6.99285 5.61719 7.17484 5.58894 7.22371C5.57808 7.24252 5.55927 7.27426 5.54715 7.29424C5.21412 7.84316 4.85124 8.54215 4.61231 9.09494C4.58444 9.15943 4.55704 9.22047 4.55141 9.23059C4.54579 9.2407 4.53533 9.26488 4.52815 9.28433C4.52099 9.30377 4.49904 9.35706 4.47939 9.40274C4.45974 9.44842 4.43993 9.49679 4.43537 9.51022C4.4308 9.52366 4.41326 9.56763 4.39639 9.60794C4.37952 9.64824 4.35032 9.723 4.33148 9.77405C4.31265 9.82511 4.2889 9.88887 4.27868 9.91574C4.20835 10.101 4.0677 10.5191 4.01573 10.6974C3.9985 10.7566 3.98009 10.8164 3.9748 10.8304C3.96951 10.8444 3.95735 10.8862 3.94776 10.9232C3.93239 10.9826 3.90756 11.0737 3.83879 11.3228C3.82841 11.3604 3.81598 11.411 3.81117 11.4352C3.80636 11.4594 3.7958 11.5055 3.7877 11.5378C3.7796 11.57 3.76117 11.6492 3.74673 11.7137C3.73229 11.7782 3.71382 11.8595 3.7057 11.8944C3.69759 11.9294 3.68715 11.9821 3.68249 12.0117C3.67784 12.0413 3.66558 12.1072 3.65523 12.1583C3.62721 12.2965 3.5627 12.6774 3.55178 12.769C3.54922 12.7905 3.53819 12.874 3.5273 12.9546C3.494 13.2009 3.46714 13.4461 3.45769 13.5898C3.45275 13.665 3.44181 13.8079 3.43339 13.9074C3.42302 14.0298 3.41631 14.2678 3.41259 14.6451C3.40695 15.2167 3.41577 15.5873 3.4428 15.9154C3.45076 16.0121 3.46015 16.1475 3.46365 16.2163C3.47107 16.3619 3.47352 16.3666 3.58231 16.4417C3.61888 16.4669 3.68837 16.5159 3.73674 16.5506C3.84715 16.6296 4.31141 16.9403 4.39638 16.992C4.43132 17.0133 4.51707 17.0659 4.58695 17.109C4.65682 17.1521 4.73378 17.1985 4.75796 17.2123C4.78215 17.226 4.8767 17.28 4.96807 17.3322C5.05944 17.3845 5.18478 17.4538 5.24659 17.4862C5.3084 17.5187 5.36337 17.5485 5.36874 17.5525C5.40267 17.578 5.92626 17.8321 6.14565 17.9296C6.22359 17.9642 6.29615 17.9964 6.3069 18.0012C6.31765 18.006 6.35503 18.0217 6.38996 18.036C6.4249 18.0503 6.4609 18.0659 6.46996 18.0706C6.49929 18.0858 6.78893 18.2013 6.88347 18.2355C6.91035 18.2452 6.96312 18.265 7.00074 18.2795C7.25751 18.3783 7.77218 18.5487 7.81379 18.5488C7.84281 18.5488 7.85185 18.5392 7.93974 18.4154C8.09492 18.1969 8.21932 18.0083 8.37083 17.7617C8.40554 17.7052 8.51038 17.5237 8.58779 17.386C8.65536 17.2658 8.74513 17.083 8.74513 17.0656C8.74513 17.0378 8.71998 17.0206 8.62297 16.9821C8.44977 16.9133 8.08227 16.7537 8.02453 16.7222C8.01506 16.717 7.94406 16.6816 7.86675 16.6434C7.60602 16.5146 7.37191 16.3847 7.35356 16.3585C7.33766 16.3358 7.34357 16.3042 7.36599 16.2922C7.37473 16.2875 7.44071 16.2371 7.51262 16.1802C7.58453 16.1232 7.64905 16.0766 7.65598 16.0766C7.6629 16.0766 7.68102 16.083 7.69624 16.0909C7.73664 16.1117 7.81701 16.1474 7.9389 16.1986C7.99802 16.2234 8.06618 16.2521 8.09037 16.2624C8.12888 16.2787 8.26631 16.332 8.45684 16.4046C8.59963 16.459 9.1242 16.6266 9.27773 16.6669C9.33147 16.681 9.40623 16.701 9.44386 16.7113C9.9177 16.8413 10.6709 16.9698 11.1638 17.0047C11.2391 17.01 11.3666 17.0197 11.4472 17.0263C11.6392 17.042 12.3595 17.042 12.5515 17.0263C12.6321 17.0197 12.7597 17.01 12.8349 17.0047C13.3278 16.9698 14.081 16.8413 14.5549 16.7113C14.5925 16.701 14.6672 16.681 14.721 16.6669C14.8747 16.6265 15.3997 16.4587 15.5419 16.4045C15.5741 16.3922 15.6555 16.3612 15.7227 16.3356C15.7898 16.31 15.869 16.2789 15.8986 16.2665C16.1574 16.1581 16.2508 16.1175 16.3025 16.0909C16.3177 16.083 16.3358 16.0766 16.3427 16.0766C16.3497 16.0766 16.4142 16.1232 16.4861 16.1802C16.558 16.2371 16.624 16.2875 16.6327 16.2922C16.6551 16.3042 16.6611 16.3358 16.6452 16.3585C16.6129 16.4045 16.0898 16.675 15.714 16.84C15.6408 16.8721 15.5678 16.9042 15.5516 16.9113C15.5355 16.9184 15.4696 16.9451 15.4051 16.9707C15.279 17.0207 15.2536 17.0366 15.2536 17.0656C15.2536 17.0819 15.3405 17.2598 15.4029 17.3713C15.4382 17.4344 15.5011 17.5451 15.5172 17.5726C15.5254 17.5865 15.5509 17.6305 15.574 17.6703C15.597 17.7101 15.6212 17.7511 15.6277 17.7615C15.6342 17.7719 15.681 17.8467 15.7316 17.9276C15.835 18.093 15.9202 18.22 16.059 18.4154C16.1473 18.5398 16.1558 18.5488 16.1853 18.5488C16.227 18.5488 16.7391 18.3791 16.998 18.2795C17.0356 18.265 17.0884 18.2452 17.1152 18.2355C17.2098 18.2013 17.4994 18.0858 17.5287 18.0706C17.5378 18.0659 17.5738 18.0503 17.6087 18.036C17.6437 18.0217 17.6811 18.006 17.6918 18.0012C17.7026 17.9964 17.7751 17.9642 17.8531 17.9296C18.1052 17.8175 18.4996 17.6248 18.6727 17.529C18.7177 17.5041 18.7562 17.4837 18.7583 17.4837C18.7617 17.4837 19.1724 17.253 19.2114 17.2292C19.2195 17.2243 19.2679 17.1955 19.3189 17.1651C19.4278 17.1004 19.5965 16.9965 19.6658 16.9514C19.8042 16.8615 20.1851 16.6053 20.262 16.5504C20.3103 16.5159 20.379 16.4675 20.4146 16.4429C20.522 16.3687 20.5232 16.3665 20.5323 16.2403C20.5366 16.1798 20.5471 16.0391 20.5556 15.9277C20.58 15.6071 20.5886 15.3239 20.5886 14.8405C20.5887 14.2446 20.5709 13.849 20.5246 13.4188C20.5162 13.3409 20.5037 13.2221 20.4968 13.155C20.4691 12.8877 20.4047 12.4699 20.3432 12.1583C20.332 12.1018 20.3195 12.0337 20.3154 12.0068C20.3112 11.9799 20.3012 11.9294 20.293 11.8944C20.2849 11.8595 20.2664 11.7782 20.252 11.7137C20.2375 11.6492 20.2191 11.57 20.211 11.5378C20.2029 11.5055 20.1924 11.4594 20.1875 11.4352C20.1827 11.411 20.1703 11.3604 20.1599 11.3228C20.0911 11.0737 20.0663 10.9826 20.051 10.9232C20.0414 10.8862 20.0292 10.8444 20.0239 10.8304C20.0186 10.8164 20.0002 10.7566 19.983 10.6974C19.931 10.5191 19.7904 10.101 19.72 9.91574C19.7098 9.88887 19.6861 9.82511 19.6672 9.77405C19.6484 9.723 19.6192 9.64824 19.6023 9.60794C19.5855 9.56763 19.5679 9.52366 19.5633 9.51022C19.5588 9.49679 19.539 9.44842 19.5193 9.40274C19.4997 9.35706 19.4777 9.30377 19.4706 9.28433C19.4634 9.26488 19.4529 9.2407 19.4473 9.23059C19.4417 9.22047 19.4143 9.15943 19.3864 9.09494C19.1739 8.60319 18.8411 7.95208 18.5549 7.468C18.5121 7.39545 18.4729 7.32949 18.468 7.32143C18.463 7.31337 18.4415 7.27819 18.42 7.24326C18.3986 7.20832 18.3738 7.16655 18.3649 7.15043C18.356 7.13431 18.3181 7.07275 18.2807 7.01363C18.0943 6.71926 17.9635 6.52735 17.9335 6.50423C17.8774 6.46095 17.6327 6.34489 17.4866 6.2922C17.2713 6.21457 17.1586 6.17485 17.1299 6.16653C17.1111 6.16106 17.0451 6.1401 16.9833 6.11995C16.9215 6.09978 16.8313 6.07128 16.783 6.05661C16.7346 6.04194 16.6686 6.02189 16.6364 6.01205C16.5631 5.98969 16.3327 5.92301 16.1624 5.87485C16.0801 5.85158 15.9435 5.8142 15.8448 5.78798C15.8018 5.77655 15.7359 5.75867 15.6982 5.74824C15.5613 5.71029 15.1941 5.61698 14.9897 5.56822C14.4484 5.43908 14.4238 5.43583 14.3926 5.48929C14.3062 5.63713 14.0851 6.08006 13.9788 6.31834C13.9626 6.35446 13.9486 6.3737 13.9407 6.37065C13.908 6.35809 13.4749 6.30478 13.1721 6.27603C12.8475 6.24522 12.4121 6.22703 11.9994 6.22703C11.5866 6.22703 11.1512 6.24522 10.8267 6.27603C10.5238 6.30478 10.0907 6.35809 10.058 6.37065C10.05 6.37371 10.0363 6.35457 10.0204 6.31834C10.0067 6.28693 9.98678 6.24364 9.97621 6.22214C9.96565 6.20065 9.92485 6.1149 9.88555 6.0316C9.79518 5.84002 9.66426 5.58719 9.60599 5.49173C9.58467 5.45679 9.58129 5.45513 9.53329 5.45588C9.5056 5.45631 9.43897 5.46721 9.38522 5.48007ZM9.00898 10.9368C8.86506 10.953 8.70685 10.9959 8.57505 11.0546C8.384 11.1396 8.15401 11.3176 8.02635 11.4792C8.00513 11.506 7.98501 11.5302 7.98166 11.5329C7.94158 11.565 7.77747 11.8628 7.73381 11.9827C7.58104 12.4021 7.57619 12.8866 7.72084 13.282C7.85146 13.6391 8.06718 13.9252 8.35709 14.1259C8.73919 14.3903 9.22298 14.4483 9.65397 14.2813C9.9428 14.1694 10.1982 13.9593 10.3822 13.6822C10.5192 13.4759 10.5962 13.2851 10.6509 13.016C10.6784 12.8802 10.6801 12.859 10.6801 12.6409C10.6801 12.4312 10.6777 12.3982 10.655 12.2864C10.5999 12.0158 10.5265 11.8367 10.3796 11.6138C10.1125 11.2086 9.66854 10.9504 9.20932 10.9333C9.13945 10.9307 9.04929 10.9323 9.00898 10.9368ZM14.7014 10.9366C14.4923 10.9582 14.2358 11.0523 14.0569 11.1732C13.8883 11.2871 13.7282 11.4483 13.6191 11.6138C13.4722 11.8367 13.3988 12.0158 13.3437 12.2864C13.321 12.3982 13.3186 12.4312 13.3186 12.6409C13.3186 12.859 13.3203 12.8802 13.3479 13.016C13.4025 13.2851 13.4795 13.4759 13.6165 13.6822C13.9056 14.1175 14.3628 14.3762 14.8431 14.3762C15.4327 14.3762 15.9675 14.001 16.2284 13.4041C16.337 13.1558 16.3826 12.9308 16.3819 12.6468C16.3815 12.4941 16.3774 12.4441 16.3553 12.3244C16.3042 12.0469 16.1814 11.748 16.0481 11.5769C16.0356 11.5608 16.0221 11.5431 16.0181 11.5377C15.8771 11.3438 15.6392 11.1505 15.4237 11.0546C15.2066 10.9579 14.9313 10.913 14.7014 10.9366Z" fill="#05081D"/>
</g>
<defs>
<clipPath id="clip0_222_2173">
<rect width="24" height="24" fill="white"/>
</clipPath>
</defs>
</svg>
