<svg width="24" height="24" viewBox="0 0 24 24" fill="none" xmlns="http://www.w3.org/2000/svg">
<g id="Icons">
<path id="Vector (Stroke)" fill-rule="evenodd" clip-rule="evenodd" d="M16.5062 3.49405C17.0365 2.96417 17.7555 2.6665 18.5052 2.6665C19.2553 2.6665 19.9746 2.96447 20.505 3.49485C21.0354 4.02523 21.3333 4.74458 21.3333 5.49465C21.3333 6.24437 21.0357 6.96339 20.5057 7.4937C20.5055 7.49396 20.5052 7.49421 20.505 7.49446L19.3524 8.65115C19.3204 8.69846 19.2834 8.74343 19.2415 8.78534C19.2004 8.82645 19.1563 8.86281 19.11 8.89443L12.8567 15.1701C12.6855 15.3419 12.453 15.4384 12.2105 15.4384H9.47365C8.96982 15.4384 8.56138 15.03 8.56138 14.5262V11.7893C8.56138 11.5468 8.65794 11.3143 8.82973 11.1431L15.1055 4.88976C15.1371 4.84347 15.1734 4.79945 15.2145 4.75836C15.2564 4.71648 15.3013 4.67952 15.3486 4.64749L16.5054 3.49485C16.5056 3.49458 16.5059 3.49432 16.5062 3.49405ZM15.8698 6.70384L10.3859 12.1682V13.6139H11.8316L17.296 8.13L15.8698 6.70384ZM18.5838 6.83755L17.1623 5.41599L17.7944 4.78615L17.7955 4.785C17.9837 4.59679 18.239 4.49105 18.5052 4.49105C18.7714 4.49105 19.0266 4.59679 19.2148 4.785C19.403 4.97321 19.5088 5.22848 19.5088 5.49465C19.5088 5.76083 19.403 6.01609 19.2148 6.20431L19.2137 6.20546L18.5838 6.83755ZM4.8016 7.11731C5.31485 6.60406 6.01098 6.31571 6.73683 6.31571H7.6491C8.15294 6.31571 8.56138 6.72415 8.56138 7.22799C8.56138 7.73182 8.15294 8.14026 7.6491 8.14026H6.73683C6.49488 8.14026 6.26284 8.23638 6.09175 8.40746C5.92067 8.57855 5.82455 8.81059 5.82455 9.05254V17.263C5.82455 17.505 5.92067 17.737 6.09175 17.9081C6.26284 18.0792 6.49488 18.1753 6.73683 18.1753H14.9473C15.1893 18.1753 15.4213 18.0792 15.5924 17.9081C15.7635 17.737 15.8596 17.505 15.8596 17.263V16.3507C15.8596 15.8469 16.268 15.4385 16.7719 15.4385C17.2757 15.4385 17.6841 15.8469 17.6841 16.3507V17.263C17.6841 17.9889 17.3958 18.685 16.8825 19.1982C16.3693 19.7115 15.6732 19.9998 14.9473 19.9998H6.73683C6.01097 19.9998 5.31485 19.7115 4.8016 19.1982C4.28834 18.685 4 17.9889 4 17.263V9.05254C4 8.32669 4.28834 7.63057 4.8016 7.11731Z" fill="#6971BE"/>
</g>
</svg>
