<svg width="18" height="18" viewBox="0 0 18 18" fill="none" xmlns="http://www.w3.org/2000/svg">
<g id="tabler-icon-gavel">
<path id="Vector" d="M9.75001 7.49991L15.2873 13.0634C15.9045 13.6784 15.9045 14.6744 15.2873 15.2887C14.9907 15.5836 14.5895 15.7492 14.1713 15.7492C13.753 15.7492 13.3518 15.5836 13.0553 15.2887L7.50001 9.74991M9.75001 7.49991L6.75001 4.49991M9.75001 7.49991L10.125 7.87489L11.8448 6.15514C11.9854 6.01449 12.0643 5.82376 12.0643 5.62489C12.0643 5.42601 11.9854 5.23528 11.8448 5.09464L9.15526 2.40514C9.01461 2.26453 8.82388 2.18555 8.62501 2.18555C8.42614 2.18555 8.2354 2.26453 8.09476 2.40514L6.37501 4.12489L6.75001 4.49991M9.75001 7.49991L7.50001 9.74991M7.50001 9.74991L4.50001 6.74991M7.50001 9.74991L7.87501 10.1249L6.15526 11.8446C6.01461 11.9852 5.82388 12.0642 5.62501 12.0642C5.42614 12.0642 5.2354 11.9852 5.09476 11.8446L2.40526 9.15514C2.26466 9.01449 2.18567 8.82376 2.18567 8.62489C2.18567 8.42601 2.26466 8.23528 2.40526 8.09464L4.12501 6.37489L4.50001 6.74991M4.50001 6.74991L6.75001 4.49991M2.25001 15.7499H7.50001" stroke="#05081D" stroke-width="1.5" stroke-linecap="round" stroke-linejoin="round"/>
</g>
</svg>
