<svg xmlns="http://www.w3.org/2000/svg" width="129" height="32" viewBox="0 0 129 32" fill="none">
  <path fill-rule="evenodd" clip-rule="evenodd" d="M5.03367 16.7009C4.88201 16.2405 4.7708 15.683 4.70004 15.0285C4.62267 14.3129 4.56464 13.5489 4.52596 12.7365C4.50662 11.9242 4.49695 11.1312 4.49695 10.3575C3.74262 10.3381 3.01731 10.2705 2.32101 10.1544C1.64405 10.0384 1.08314 9.82559 0.638277 9.51612C0.212759 9.18731 0 8.71344 0 8.09451C0 7.34018 0.203088 6.77927 0.609264 6.41178C1.01544 6.02494 1.55701 5.7735 2.23397 5.65745C2.93027 5.52206 3.6846 5.44469 4.49695 5.42535C4.51629 4.82576 4.56464 4.21649 4.64201 3.59756C4.73872 2.95928 4.89345 2.36936 5.10621 1.82779C5.31897 1.28622 5.61877 0.851035 6.0056 0.522226C6.39244 0.174075 6.89532 0 7.51426 0C8.34595 0 8.94554 0.261113 9.31304 0.78334C9.69987 1.30557 9.94164 1.98252 10.0384 2.81422C10.1351 3.64591 10.1737 4.51629 10.1544 5.42535C11.1602 5.40601 12.0499 5.44469 12.8236 5.5414C13.5972 5.63811 14.2065 5.85087 14.6513 6.17968C15.0962 6.50849 15.3186 7.03071 15.3186 7.74636C15.3186 8.48134 15.0672 9.03258 14.5643 9.40007C14.0614 9.76757 13.4038 10.019 12.5915 10.1544C11.7791 10.2705 10.9184 10.3381 10.0093 10.3575C10.0093 10.725 9.99967 11.1118 9.98032 11.518V12.7075C9.98032 13.81 10.0577 14.5933 10.2124 15.0575C10.3285 15.4057 10.4832 15.6281 10.6766 15.7248C10.8894 15.8215 11.1505 15.8795 11.46 15.8989C11.7694 15.8989 12.1466 15.9569 12.5915 16.073C12.7193 16.1007 12.8391 16.1405 12.9509 16.1922L5.03367 16.7009ZM16.4663 15.6668C16.4774 15.7676 16.4891 15.8667 16.5015 15.9641L22.3038 15.5914C22.336 14.6641 22.4598 13.8866 22.675 13.2587C22.9265 12.5818 23.3713 12.2433 24.0096 12.2433C24.6479 12.2433 25.0734 12.5818 25.2862 13.2587C25.4847 13.8378 25.5983 14.5441 25.627 15.3779L31.0135 15.0318C31.025 14.7193 31.0307 14.4088 31.0307 14.1001C31.0307 12.7462 30.7889 11.5083 30.3053 10.3865C29.8218 9.26468 29.1158 8.36529 28.1874 7.68833C27.259 7.01137 26.1082 6.67289 24.7349 6.67289C24.0773 6.67289 23.5938 6.72125 23.2843 6.81795C22.9942 6.91466 22.6847 7.04038 22.3559 7.19512C22.3559 6.36342 22.3462 5.53173 22.3269 4.70004C22.3075 3.849 22.2205 3.07533 22.0658 2.37903C21.9304 1.66339 21.6596 1.09281 21.2534 0.667287C20.8472 0.222428 20.2477 0 19.4546 0C18.4295 0 17.6849 0.396506 17.2207 1.18952C16.7565 1.98253 16.4663 3.085 16.3503 4.49695C16.2536 5.90889 16.2052 7.56261 16.2052 9.4581C16.2052 11.9919 16.2923 14.0614 16.4663 15.6668ZM95.1452 10.9116C95.1331 10.794 95.1202 10.677 95.1062 10.5606C94.9901 9.57416 94.7967 8.68444 94.5259 7.89143C94.2551 7.07908 93.8876 6.4408 93.4234 5.9766C92.9593 5.49305 92.379 5.25128 91.6827 5.25128C90.8897 5.25128 90.3094 5.40602 89.9419 5.71548C89.5938 6.02495 89.3423 6.42145 89.1876 6.905C88.8201 6.80829 88.3753 6.74059 87.853 6.70191C87.3502 6.64389 86.915 6.61487 86.5475 6.61487C85.4257 6.61487 84.3328 6.89533 83.269 7.45624C82.2053 8.01715 81.3252 8.83917 80.6289 9.92231C80.2636 10.5068 79.9968 11.1646 79.8286 11.8956L85.9539 11.5021C86.2747 11.3193 86.6273 11.2279 87.0117 11.2279C87.2999 11.2279 87.5702 11.2793 87.8227 11.382L95.1452 10.9116ZM110.987 9.89385C111.037 9.36638 111.122 8.87302 111.24 8.41366C111.414 7.81407 111.695 7.33053 112.082 6.96303C112.488 6.5762 113.058 6.38278 113.793 6.38278C114.315 6.38278 114.789 6.5085 115.215 6.75994C115.64 6.99205 115.911 7.34987 116.027 7.83341C116.472 7.42723 117.033 7.13711 117.71 6.96303C118.406 6.76962 119.122 6.6729 119.857 6.6729C120.476 6.6729 121.104 6.82764 121.743 7.13711C122.381 7.42723 122.923 7.83341 123.367 8.35564C123.559 8.58096 123.71 8.81889 123.819 9.06943L110.987 9.89385ZM97.0083 10.7919L109.308 10.0017C109.22 9.81806 109.119 9.63686 109.006 9.45811C108.522 8.64576 107.816 7.97847 106.888 7.45624C105.96 6.93402 104.848 6.6729 103.552 6.6729C102.159 6.6729 100.921 6.99204 99.8381 7.63032C98.7743 8.2686 97.9329 9.11963 97.3139 10.1834C97.2015 10.3829 97.0997 10.5857 97.0083 10.7919ZM77.6851 10.0674C78.0014 10.6766 78.222 11.3177 78.3467 11.9908L73.1786 12.3229C73.0921 12.1816 72.9792 12.0487 72.84 11.9242C72.4725 11.576 71.8343 11.402 70.9252 11.402C70.4997 11.402 70.1612 11.4406 69.9098 11.518C69.6777 11.576 69.4649 11.6534 69.2715 11.7501C69.0781 11.8468 68.8556 11.9339 68.6042 12.0112C68.3721 12.0692 68.0529 12.0983 67.6468 12.0983C67.0472 12.0983 66.5636 11.9435 66.1962 11.6341C65.848 11.3052 65.6739 10.812 65.6739 10.1544C65.6739 9.55482 65.8383 9.04227 66.1671 8.61675C66.5153 8.17189 66.9601 7.80439 67.5017 7.51427C68.0433 7.22414 68.6235 7.01138 69.2425 6.87599C69.8807 6.7406 70.49 6.6729 71.0703 6.6729C72.7917 6.6729 74.194 6.99204 75.2771 7.63032C76.3602 8.24925 77.1629 9.06161 77.6851 10.0674ZM64.7751 12.8628C64.7581 12.2615 64.6918 11.6392 64.5764 10.9958C64.4603 10.2414 64.2669 9.53547 63.9961 8.87786C63.7447 8.22024 63.3965 7.68834 62.9517 7.28216C62.5261 6.87599 62.0039 6.6729 61.385 6.6729C59.9924 6.6729 59.2961 7.50459 59.2961 9.16798C59.2961 9.53547 59.3734 9.96099 59.5282 10.4445C59.6829 10.9087 59.828 11.3826 59.9634 11.8661C60.1181 12.3303 60.1955 12.7559 60.1955 13.1427L60.1954 13.157L64.7751 12.8628ZM57.6631 13.3197C57.6406 13.0269 57.6337 12.7068 57.6424 12.3594C57.681 11.5664 57.7004 10.754 57.7004 9.92231C57.7004 9.30337 57.5166 8.75213 57.1491 8.26859C56.801 7.76571 56.2304 7.51426 55.4374 7.51426C54.6637 7.51426 54.1028 7.76571 53.7547 8.26859C53.4259 8.75213 53.2615 9.30337 53.2615 9.92231V12.3594C53.2731 12.8238 53.2533 13.2394 53.2022 13.6063L57.6631 13.3197ZM51.1361 13.739L46.1532 14.0591C46.1571 14.116 46.1614 14.1726 46.1661 14.2289C46.1383 13.8964 46.1244 13.5537 46.1244 13.2007C46.1244 12.5044 46.1824 11.7791 46.2984 11.0248C46.4338 10.2511 46.6273 9.53547 46.8787 8.87786C47.1495 8.22024 47.4976 7.68834 47.9231 7.28216C48.368 6.85665 48.8999 6.64389 49.5188 6.64389C50.2538 6.64389 50.8051 6.88566 51.1726 7.3692C51.5594 7.8334 51.7528 8.45234 51.7528 9.226C51.7528 9.57416 51.6948 9.98033 51.5787 10.4445C51.482 10.9087 51.3756 11.3826 51.2596 11.8661C51.1629 12.3303 51.1145 12.7559 51.1145 13.1427C51.1145 13.3607 51.1217 13.5594 51.1361 13.739ZM32.0108 14.9677L44.6601 14.1551C45.0515 13.5799 45.2473 12.8556 45.2473 11.9822C45.2473 11.0925 44.9958 10.2511 44.4929 9.45811C44.0094 8.64576 43.3034 7.97847 42.375 7.45624C41.4466 6.93402 40.3345 6.6729 39.0386 6.6729C37.646 6.6729 36.4081 6.99204 35.325 7.63032C34.2612 8.2686 33.4198 9.11963 32.8009 10.1834C32.2013 11.2472 31.9015 12.4077 31.9015 13.6649C31.9015 14.1168 31.9379 14.5511 32.0108 14.9677ZM37.2398 12.2433C37.4332 12.5528 37.7137 12.7752 38.0812 12.9106C38.4486 13.0267 38.8161 13.0653 39.1836 13.0267C39.5705 12.988 39.8896 12.8816 40.141 12.7075C40.4118 12.5334 40.5472 12.2917 40.5472 11.9822C40.5472 11.6534 40.4118 11.3633 40.141 11.1118C39.8896 10.841 39.4834 10.7057 38.9225 10.7057C38.3809 10.7057 37.9651 10.8797 37.675 11.2279C37.3848 11.5567 37.2398 11.8952 37.2398 12.2433Z" fill="#41F7B5"/>
  <path fill-rule="evenodd" clip-rule="evenodd" d="M8.10552 20.6282C8.73977 20.9093 9.37351 21.0711 10.0067 21.1136C11.1646 21.1913 12.0936 21.0695 12.7937 20.7481C12.8386 20.7281 12.8823 20.7075 12.9246 20.6861C13.5594 20.3664 13.8974 19.899 13.9387 19.2838C13.9411 19.2476 13.9431 19.2118 13.9445 19.1764C13.9653 18.6451 13.8697 18.1997 13.6576 17.8402C13.6476 17.8222 13.6373 17.8045 13.6269 17.7871C13.4703 17.5262 13.2662 17.3271 13.0147 17.1896L5.08118 17.167C5.09243 17.2108 5.10408 17.2538 5.11615 17.296C5.12875 17.3429 5.14195 17.3894 5.15574 17.4356M19.4598 21.748C18.4949 21.6832 17.7868 21.2577 17.3355 20.4714C16.913 19.735 16.6587 18.6445 16.5726 17.1997L22.3868 17.2163C22.3794 17.2886 22.3725 17.3618 22.3662 17.4359C22.3066 18.3237 22.1962 19.1013 22.0351 19.769C21.8933 20.438 21.6261 20.9531 21.2335 21.3145C20.8423 21.6566 20.251 21.801 19.4598 21.748ZM30.4569 20.3633C30.69 19.778 30.8595 19.1303 30.9653 18.4201C31.0242 18.0247 31.074 17.6318 31.1145 17.2412L25.7169 17.2258C25.7123 17.3669 25.7051 17.5114 25.6951 17.6593C25.6356 18.5471 25.6313 19.3319 25.6825 20.0138C25.6858 20.0552 25.6896 20.0961 25.694 20.1364C25.7602 20.7417 25.9536 21.2278 26.2743 21.5946C26.3196 21.6413 26.3683 21.6854 26.4203 21.7271C26.7845 22.0187 27.3128 22.1877 28.0051 22.2342C28.6227 22.2756 29.1271 22.1253 29.5183 21.7833C29.5674 21.7381 29.6152 21.6912 29.6618 21.6425C29.9879 21.3018 30.2529 20.8754 30.4569 20.3633ZM38.9129 23.0534C37.4655 22.9563 36.2106 22.591 35.1482 21.9575C35.0831 21.9168 35.0189 21.8754 34.9557 21.8332C34.0077 21.2005 33.2752 20.4034 32.7582 19.4418C32.7149 19.3569 32.6738 19.2711 32.6346 19.1845C32.3608 18.5782 32.1872 17.9313 32.1139 17.2441L44.7892 17.2802L44.7649 17.3107C44.7096 17.3773 44.6524 17.4418 44.5934 17.5041C44.1803 17.9408 43.6777 18.2749 43.0854 18.5065C42.4291 18.7533 41.7311 18.9003 40.9913 18.9476C40.2515 18.9948 39.5458 18.9669 38.8742 18.8636C38.204 18.7411 37.6424 18.5871 37.1896 18.4017C37.4995 18.9846 37.9078 19.3997 38.4146 19.647C38.4805 19.6756 38.5468 19.7026 38.6136 19.728C39.0808 19.9057 39.5683 20.0031 40.076 20.0202C40.076 20.0202 40.076 20.0202 40.076 20.0202C40.6769 20.0217 41.2218 19.9904 41.7107 19.9263C42.318 19.8314 42.8082 19.8934 43.1812 20.1122C43.5542 20.3311 43.7361 20.6535 43.7269 21.0794C43.7229 21.428 43.5742 21.767 43.2807 22.0962C43.2464 22.1375 43.2089 22.1779 43.1681 22.2172C42.8824 22.4928 42.4367 22.7205 41.831 22.9003C41.1832 23.0749 40.2878 23.1307 39.1448 23.0676C39.0686 23.0634 38.9913 23.0587 38.9129 23.0534ZM51.1826 23.9024C50.1356 23.7969 49.242 23.4377 48.5016 22.8246C47.712 22.1707 47.1211 21.2974 46.7292 20.2049C46.4507 19.3721 46.3032 18.4553 46.2868 17.4547L46.2863 17.4197L46.2859 17.3838L46.2856 17.3568C46.2854 17.3266 46.2852 17.2964 46.2853 17.2661L46.2853 17.2845L51.2785 17.2987C51.2828 17.6301 51.3157 17.8983 51.3773 18.1034C51.4917 18.4213 51.7708 18.5951 52.2147 18.6249C52.6778 18.6559 52.9931 18.4348 53.1606 17.9614C53.2358 17.765 53.2985 17.546 53.3488 17.3046L57.8189 17.3173C57.8224 17.6776 57.8521 17.9985 57.908 18.28C57.9089 18.2838 57.9099 18.2877 57.9109 18.2915C58.035 18.7769 58.3556 19.037 58.8726 19.0717C59.7229 19.1287 60.2111 18.6163 60.3371 17.5343C60.3449 17.4666 60.3514 17.3967 60.3565 17.3246L64.9455 17.3376C64.9415 17.4412 64.936 17.5441 64.9292 17.6462C64.7854 19.7883 64.1684 21.4722 63.0781 22.6978C62.0084 23.9055 60.6148 24.4517 58.8973 24.3364C58.849 24.3332 58.801 24.3294 58.7533 24.325C58.0376 24.26 57.3812 24.0711 56.7843 23.7584C56.7446 23.7364 56.7053 23.714 56.6666 23.6914C56.0851 23.3513 55.6106 22.9418 55.2429 22.4628C55.1858 22.5196 55.1271 22.575 55.0668 22.6291C54.6449 23.0079 54.1457 23.3221 53.5692 23.5718C52.9103 23.8571 52.1853 23.9732 51.3941 23.9201C51.3229 23.9153 51.2524 23.9094 51.1826 23.9024ZM70.5543 25.1769C69.6087 25.1134 68.75 24.9104 67.9782 24.5678C67.2257 24.2265 66.6373 23.7509 66.213 23.1408C65.7899 22.5115 65.6089 21.7433 65.6697 20.8363C65.673 20.7881 65.6771 20.7403 65.6821 20.6931C65.7569 19.9848 66.0284 19.392 66.4966 18.9145C66.996 18.4052 67.6414 18.0318 68.4327 17.7941C68.5341 17.7646 68.6365 17.7374 68.7399 17.7125C69.464 17.5385 70.2397 17.4792 71.0672 17.5347C71.6268 17.5723 72.135 17.6549 72.5917 17.7824C73.0496 17.8907 73.3616 18.0086 73.5275 18.136C73.5287 18.1188 73.5295 18.1016 73.5301 18.0845C73.539 17.8281 73.4844 17.5871 73.3663 17.3617L78.5451 17.3764C78.5967 17.819 78.607 18.2724 78.5758 18.7365C78.5318 19.3926 78.4331 19.9966 78.2798 20.5485C78.1457 21.1017 77.9815 21.5268 77.7871 21.8239C77.7871 21.8239 77.7871 21.8239 77.7871 21.824C77.8189 21.8552 77.8496 21.8869 77.8793 21.9192C78.0867 22.1451 78.2405 22.3971 78.3406 22.6752C78.3406 22.6753 78.3406 22.6753 78.3406 22.6753C78.4742 22.9944 78.5301 23.318 78.508 23.6461C78.5058 23.6799 78.5028 23.7134 78.4991 23.7466C78.4441 24.2449 78.2314 24.6816 77.8609 25.0566C77.8141 25.1043 77.7651 25.1487 77.7139 25.1898C77.3553 25.4774 76.889 25.602 76.3149 25.5634C76.3149 25.5634 76.3149 25.5634 76.3148 25.5634C75.8131 25.5298 75.4227 25.426 75.1435 25.2522C74.8644 25.0784 74.5885 24.8563 74.3159 24.586C73.8346 24.8251 73.309 25.0031 72.739 25.1199C72.1702 25.2175 71.442 25.2364 70.5543 25.1769ZM72.3311 22.0976C72.3311 22.0976 72.3311 22.0976 72.3312 22.0975C72.5757 21.9201 72.7057 21.7156 72.7213 21.484C72.7368 21.2524 72.6346 21.042 72.4147 20.8528C72.2154 20.6456 71.8938 20.5271 71.4499 20.4973C71.0253 20.4688 70.6908 20.5433 70.4463 20.7207C70.203 20.8788 70.0736 21.0737 70.0581 21.3053C70.0426 21.5369 70.1441 21.7569 70.3627 21.9654C70.5827 22.1547 70.9049 22.2635 71.3295 22.292C71.7733 22.3218 72.1071 22.257 72.3311 22.0976ZM85.2303 31.134C85.2303 31.134 85.2303 31.1341 85.2304 31.1341C86.9479 31.2493 88.4771 30.9933 89.8181 30.366C91.1783 29.7401 92.298 28.7975 93.1773 27.5383C94.0566 26.2791 94.653 24.7586 94.9664 22.9768C95.1237 22.0763 95.2367 21.1146 95.3054 20.0918C95.3103 20.0346 95.315 19.9775 95.3195 19.9205C95.3867 19.0653 95.4062 18.2333 95.3781 17.4244L88.0405 17.4035L88.07 17.4181C88.323 17.5466 88.5531 17.7292 88.7601 17.9661C88.8119 18.0253 88.8601 18.0854 88.9048 18.1466C89.2174 18.5747 89.3562 19.0504 89.321 19.5739C89.3186 19.6101 89.3153 19.6459 89.3112 19.6815C89.2493 20.2146 88.9963 20.6752 88.5523 21.0634C88.0786 21.4775 87.5427 21.6645 86.9444 21.6243C86.3462 21.5842 85.8401 21.3273 85.426 20.8537C85.426 20.8537 85.426 20.8537 85.426 20.8536C85.0312 20.3813 84.8532 19.8556 84.8921 19.2767C84.9322 18.6784 85.1795 18.1716 85.6338 17.7562C85.8038 17.6076 85.9819 17.4883 86.1679 17.3981L80.03 17.3806C80.0209 17.411 80.0119 17.4415 80.003 17.4722C79.9819 17.5456 79.9617 17.6199 79.9424 17.695C79.8077 18.2206 79.7201 18.7863 79.6794 19.3921C79.6393 19.9903 79.711 20.6542 79.8947 21.3838C79.8947 21.3838 79.8947 21.3838 79.8947 21.3838C80.0989 22.0954 80.4499 22.7878 80.9475 23.4609C81.4464 24.1147 82.1261 24.674 82.9866 25.1388C83.0968 25.1947 83.2103 25.2477 83.3271 25.298C84.1453 25.6497 85.1285 25.8641 86.2767 25.9412C86.9522 25.9865 87.5639 25.9694 88.1121 25.8899C88.6602 25.8104 89.0945 25.6941 89.4149 25.5411C89.223 26.0904 88.6934 26.4717 87.8261 26.6849C86.9768 26.9187 86.0267 26.9227 84.9757 26.6971C84.079 26.4819 83.2986 26.5555 82.6346 26.918C81.9706 27.2805 81.614 27.8285 81.5647 28.5618C81.5647 28.5618 81.5647 28.5618 81.5647 28.5618C81.5168 29.2759 81.8459 29.8601 82.552 30.3146C83.2569 30.7884 84.1496 31.0615 85.2303 31.134ZM103.281 27.3731C101.834 27.276 100.579 26.9107 99.5165 26.2772C98.4746 25.6257 97.678 24.7872 97.1265 23.7615C97.0601 23.6311 96.9986 23.4987 96.9419 23.3643C96.5449 22.4238 96.3844 21.3879 96.4603 20.2565C96.5287 19.2373 96.7903 18.295 97.2451 17.4297L109.57 17.4649C109.829 18.1148 109.935 18.7835 109.889 19.4711C109.889 19.4712 109.889 19.4712 109.889 19.4712C109.829 20.3589 109.577 21.0787 109.133 21.6304C109.13 21.6346 109.126 21.6387 109.123 21.6429C108.682 22.1691 108.125 22.5635 107.454 22.8262C107.372 22.8571 107.289 22.8863 107.206 22.9141C106.622 23.1081 106.007 23.2259 105.36 23.2672C105.36 23.2672 105.36 23.2672 105.36 23.2672C104.62 23.3145 103.914 23.2865 103.243 23.1833C102.572 23.0608 102.011 22.9068 101.558 22.7213C101.868 23.3043 102.276 23.7194 102.783 23.9667C103.31 24.1959 103.864 24.3203 104.444 24.3399C105.045 24.3414 105.59 24.3101 106.079 24.246C106.686 24.1511 107.176 24.213 107.549 24.4319C107.549 24.4319 107.549 24.4319 107.549 24.4319C107.922 24.6508 108.104 24.9732 108.095 25.399C108.091 25.7477 107.942 26.0867 107.649 26.4159C107.375 26.7464 106.892 27.0145 106.199 27.22C105.551 27.3946 104.656 27.4504 103.513 27.3873C103.437 27.3831 103.36 27.3784 103.281 27.3731ZM101.882 19.1956C102.054 19.5173 102.319 19.758 102.677 19.9177C103.035 20.0581 103.4 20.1213 103.769 20.1073C104.157 20.0946 104.483 20.0098 104.745 19.853C105.027 19.6974 105.179 19.4653 105.199 19.1565C105.201 19.136 105.202 19.1156 105.202 19.0953C105.206 18.7912 105.09 18.5131 104.852 18.2609C104.62 17.9739 104.223 17.8116 103.664 17.774C103.123 17.7378 102.697 17.8836 102.384 18.2115C102.073 18.5202 101.905 18.8482 101.882 19.1956ZM112.008 27.3191C112.404 27.7721 112.931 28.0207 113.587 28.0647C114.281 28.1113 114.823 27.9829 115.212 27.6794C115.602 27.3567 115.882 26.9297 116.054 26.3984C116.244 25.8684 116.369 25.3146 116.427 24.7369C116.506 24.1412 116.562 23.5925 116.596 23.0908C116.66 22.1259 117.001 21.383 117.618 20.8622C117.697 20.7949 117.777 20.7321 117.858 20.6739C118.424 20.2666 119.019 20.084 119.644 20.1259C119.914 20.144 120.143 20.1982 120.331 20.2883C120.519 20.3784 120.716 20.4789 120.922 20.5896C120.922 20.5896 120.922 20.5896 120.922 20.5896C121.129 20.6811 121.396 20.7378 121.724 20.7598C122.477 20.8103 123.073 20.5983 123.512 20.1237C123.97 19.6505 124.218 19.134 124.255 18.5744C124.257 18.5513 124.258 18.5283 124.259 18.5053C124.274 18.1613 124.226 17.8319 124.115 17.5171L124.111 17.5063L111.252 17.4697C111.226 17.6293 111.203 17.7923 111.183 17.9588C111.178 18.0021 111.174 18.0454 111.17 18.0887C111.11 18.7377 111.058 19.3789 111.016 20.0121C110.948 21.0156 110.922 21.9928 110.935 22.9436C110.936 23.003 110.937 23.062 110.939 23.1206C110.96 24.0001 111.048 24.7903 111.201 25.4911C111.343 26.1453 111.567 26.6935 111.873 27.1359C111.916 27.1991 111.961 27.2602 112.008 27.3191Z" fill="#8D3DF2"/>
</svg>