<svg width="18" height="18" viewBox="0 0 18 18" fill="none" xmlns="http://www.w3.org/2000/svg">
<g id="Icons">
<path id="Vector" d="M9 4C8.66839 4 8.35036 4.13171 8.11587 4.36617C7.88139 4.60062 7.74965 4.91861 7.74965 5.25017V7.75052H5.24896L5.10267 7.75927C4.78621 7.79691 4.49607 7.95394 4.29153 8.19829C4.08698 8.44264 3.98347 8.75586 4.00215 9.07396C4.02083 9.39206 4.16028 9.69102 4.39201 9.90976C4.62375 10.1285 4.93027 10.2505 5.24896 10.2509H7.74965V12.7512L7.75841 12.8975C7.79605 13.2139 7.9531 13.504 8.19749 13.7085C8.44187 13.913 8.75514 14.0165 9.07328 13.9978C9.39142 13.9792 9.69042 13.8397 9.90919 13.608C10.128 13.3763 10.25 13.0699 10.2503 12.7512V10.2509H12.751L12.8973 10.2421C13.2138 10.2045 13.5039 10.0474 13.7085 9.80309C13.913 9.55874 14.0165 9.24552 13.9978 8.92743C13.9792 8.60933 13.8397 8.31037 13.608 8.09163C13.3763 7.87288 13.0697 7.75087 12.751 7.75052H10.2503V5.25017L10.2416 5.1039C10.2058 4.7998 10.0596 4.51941 9.8307 4.31594C9.60184 4.11246 9.30625 4.00004 9 4Z" fill="white"/>
</g>
</svg>
