<svg width="24" height="24" viewBox="0 0 24 24" fill="none" xmlns="http://www.w3.org/2000/svg">
<g id="Icons" clip-path="url(#clip0_222_2545)">
<path id="Vector" fill-rule="evenodd" clip-rule="evenodd" d="M8.68829 3.11787C6.59448 5.10709 5.11397 6.58481 4.59857 7.19987C2.63052 9.54859 1.4939 11.6226 1.11034 13.5646C0.921463 14.5208 0.97961 15.7508 1.25001 16.5189C1.66759 17.7054 2.67508 18.7722 3.90174 19.3271C4.70474 19.6904 5.27474 19.8063 6.22256 19.7993C7.85355 19.787 9.23895 19.0961 10.3241 17.7537C10.6255 17.3808 10.7538 17.2821 10.9374 17.2821C11.3672 17.2821 11.4881 17.443 11.4274 17.9342C11.2964 18.9956 10.7949 20.3872 10.1767 21.4054C9.73029 22.1405 8.48169 23.3313 7.78384 23.6874L7.27748 23.9458L11.9333 23.9479C14.4941 23.9491 16.6588 23.9709 16.7437 23.9964C16.8288 24.0218 16.6474 23.9114 16.3408 23.751C14.581 22.8308 13.3839 21.1864 12.7547 18.8252C12.5025 17.8789 12.4917 17.4792 12.7153 17.3653C13.0788 17.1801 13.2867 17.2636 13.6829 17.7537C14.7742 19.1038 16.1441 19.787 17.7845 19.7993C19.065 19.8088 20.044 19.5022 21.0507 18.7764C22.4032 17.8012 23.0756 16.3525 22.9932 14.5909C22.8869 12.318 21.668 9.83998 19.2982 7.07936C18.4271 6.06455 15.8954 3.58302 13.5059 1.40188L11.9701 0L8.68829 3.11787ZM11.943 5.1242C11.9224 5.16116 11.6048 6.08535 11.2372 7.17793L10.5688 9.1645L8.29256 9.18636L6.0163 9.20829L7.85515 10.4819C9.11262 11.3528 9.67949 11.7916 9.64809 11.8695C9.40892 12.4628 8.32261 15.7733 8.35653 15.8055C8.38084 15.8287 9.20975 15.2875 10.1986 14.603L11.9963 13.3584L12.2531 13.5309C12.3943 13.6258 13.2063 14.1861 14.0574 14.7761C14.9085 15.3661 15.624 15.8308 15.6472 15.8086C15.6798 15.7777 14.5844 12.4288 14.3582 11.8677C14.3277 11.7922 14.9129 11.34 16.1519 10.4819L17.9907 9.20829L15.7145 9.18668L13.4382 9.16499L12.7686 7.17826C12.1084 5.21948 12.0168 4.99141 11.943 5.1242Z" fill="white"/>
</g>
<defs>
<clipPath id="clip0_222_2545">
<rect width="24" height="24" fill="white"/>
</clipPath>
</defs>
</svg>
