<svg width="1177" height="275" viewBox="0 0 1177 275" fill="none" xmlns="http://www.w3.org/2000/svg">
<g clip-path="url(#clip0_142_2)">
<g filter="url(#filter0_d_142_2)">
<path d="M36.0795 112.331V30.877H68.2159C74.3939 30.877 79.6572 32.057 84.0057 34.4168C88.3542 36.7501 91.6686 39.9982 93.9489 44.1611C96.2557 48.2975 97.4091 53.0702 97.4091 58.4793C97.4091 63.8884 96.2424 68.661 93.9091 72.7974C91.5758 76.9337 88.1951 80.1553 83.767 82.4622C79.3655 84.769 74.036 85.9224 67.7784 85.9224H47.2955V72.1213H64.9943C68.3087 72.1213 71.0398 71.5512 73.1875 70.411C75.3617 69.2444 76.9792 67.6402 78.0398 65.5985C79.1269 63.5303 79.6705 61.1573 79.6705 58.4793C79.6705 55.7748 79.1269 53.4149 78.0398 51.3998C76.9792 49.3581 75.3617 47.7804 73.1875 46.6668C71.0133 45.5267 68.2557 44.9566 64.9148 44.9566H53.3011V112.331H36.0795ZM142.973 86.3202V51.2407H159.916V112.331H143.649V101.235H143.013C141.634 104.814 139.341 107.691 136.132 109.865C132.95 112.04 129.066 113.127 124.479 113.127C120.395 113.127 116.803 112.199 113.7 110.343C110.598 108.486 108.172 105.848 106.422 102.428C104.699 99.0077 103.824 94.9111 103.797 90.1384V51.2407H120.74V87.1157C120.767 90.7217 121.734 93.572 123.644 95.6667C125.553 97.7614 128.111 98.8088 131.32 98.8088C133.361 98.8088 135.27 98.3447 137.047 97.4167C138.824 96.4622 140.255 95.057 141.342 93.2009C142.456 91.3448 143 89.0513 142.973 86.3202ZM201.483 51.2407V63.9678H164.693V51.2407H201.483ZM173.046 36.6043H189.989V93.5588C189.989 95.1232 190.227 96.3428 190.705 97.2178C191.182 98.0663 191.845 98.663 192.693 99.0077C193.568 99.3524 194.576 99.5247 195.716 99.5247C196.512 99.5247 197.307 99.4585 198.102 99.3259C198.898 99.1668 199.508 99.0474 199.932 98.9678L202.597 111.575C201.748 111.841 200.555 112.146 199.017 112.49C197.479 112.861 195.61 113.087 193.409 113.166C189.326 113.325 185.746 112.782 182.671 111.536C179.621 110.29 177.248 108.354 175.551 105.729C173.854 103.104 173.019 99.7898 173.046 95.786V36.6043ZM239.942 135.24C237.794 135.24 235.779 135.068 233.897 134.723C232.041 134.405 230.503 133.994 229.283 133.49L233.101 120.843C235.09 121.452 236.88 121.784 238.471 121.837C240.088 121.89 241.48 121.519 242.647 120.723C243.84 119.928 244.808 118.575 245.55 116.666L246.544 114.081L224.63 51.2407H242.448L255.096 96.1042H255.732L268.499 51.2407H286.437L262.692 118.933C261.552 122.221 260.001 125.085 258.039 127.524C256.103 129.99 253.651 131.886 250.681 133.212C247.711 134.564 244.132 135.24 239.942 135.24ZM316.261 113.524C310.082 113.524 304.74 112.212 300.232 109.587C295.751 106.935 292.291 103.25 289.851 98.5303C287.412 93.7841 286.192 88.2822 286.192 82.0247C286.192 75.7141 287.412 70.1989 289.851 65.4792C292.291 60.733 295.751 57.0475 300.232 54.4225C304.74 51.771 310.082 50.4452 316.261 50.4452C322.439 50.4452 327.768 51.771 332.249 54.4225C336.757 57.0475 340.23 60.733 342.67 65.4792C345.109 70.1989 346.329 75.7141 346.329 82.0247C346.329 88.2822 345.109 93.7841 342.67 98.5303C340.23 103.25 336.757 106.935 332.249 109.587C327.768 112.212 322.439 113.524 316.261 113.524ZM316.34 100.399C319.151 100.399 321.497 99.6043 323.38 98.0134C325.262 96.396 326.681 94.1951 327.636 91.411C328.617 88.6269 329.107 85.4584 329.107 81.9053C329.107 78.3523 328.617 75.1837 327.636 72.3997C326.681 69.6156 325.262 67.4148 323.38 65.7974C321.497 64.18 319.151 63.3713 316.34 63.3713C313.503 63.3713 311.117 64.18 309.181 65.7974C307.272 67.4148 305.827 69.6156 304.846 72.3997C303.891 75.1837 303.414 78.3523 303.414 81.9053C303.414 85.4584 303.891 88.6269 304.846 91.411C305.827 94.1951 307.272 96.396 309.181 98.0134C311.117 99.6043 313.503 100.399 316.34 100.399ZM392.042 86.3202V51.2407H408.985V112.331H392.718V101.235H392.082C390.703 104.814 388.409 107.691 385.201 109.865C382.019 112.04 378.135 113.127 373.548 113.127C369.464 113.127 365.871 112.199 362.769 110.343C359.667 108.486 357.241 105.848 355.491 102.428C353.767 99.0077 352.892 94.9111 352.866 90.1384V51.2407H369.809V87.1157C369.835 90.7217 370.803 93.572 372.712 95.6667C374.621 97.7614 377.18 98.8088 380.388 98.8088C382.43 98.8088 384.339 98.3447 386.116 97.4167C387.892 96.4622 389.324 95.057 390.411 93.2009C391.525 91.3448 392.068 89.0513 392.042 86.3202ZM418.058 112.331V51.2407H434.484V61.8998H435.12C436.234 58.1081 438.103 55.2445 440.728 53.3089C443.353 51.3467 446.376 50.3657 449.796 50.3657C450.645 50.3657 451.56 50.4187 452.541 50.5248C453.522 50.6308 454.383 50.7767 455.126 50.9623V65.9963C454.33 65.7577 453.23 65.5455 451.825 65.3599C450.419 65.1743 449.133 65.0816 447.967 65.0816C445.474 65.0816 443.247 65.625 441.285 66.7122C439.349 67.7728 437.811 69.2576 436.671 71.1667C435.558 73.0758 435.001 75.2767 435.001 77.7691V112.331H418.058ZM47.8125 213.331L31.1875 152.24H48.3295L57.7955 193.286H58.3523L68.2159 152.24H85.0398L95.0625 193.047H95.5795L104.886 152.24H121.989L105.403 213.331H87.4659L76.9659 174.911H76.2102L65.7102 213.331H47.8125ZM143.49 178.013V213.331H126.547V131.877H143.013V163.019H143.729C145.108 159.413 147.335 156.589 150.411 154.547C153.486 152.479 157.344 151.445 161.984 151.445C166.227 151.445 169.926 152.373 173.081 154.229C176.263 156.058 178.729 158.697 180.479 162.144C182.255 165.564 183.13 169.661 183.104 174.433V213.331H166.161V177.456C166.187 173.691 165.233 170.761 163.297 168.666C161.388 166.572 158.71 165.524 155.263 165.524C152.956 165.524 150.914 166.015 149.138 166.996C147.388 167.977 146.009 169.409 145.002 171.291C144.02 173.147 143.517 175.388 143.49 178.013ZM219.799 214.524C213.514 214.524 208.105 213.252 203.571 210.706C199.064 208.134 195.59 204.502 193.151 199.808C190.711 195.089 189.492 189.507 189.492 183.064C189.492 176.78 190.711 171.265 193.151 166.519C195.59 161.772 199.024 158.074 203.452 155.422C207.906 152.771 213.13 151.445 219.122 151.445C223.153 151.445 226.905 152.094 230.378 153.394C233.878 154.666 236.927 156.589 239.526 159.161C242.151 161.733 244.192 164.968 245.651 168.865C247.109 172.736 247.838 177.271 247.838 182.468V187.121H196.253V176.621H231.889C231.889 174.182 231.359 172.021 230.299 170.138C229.238 168.255 227.766 166.784 225.884 165.723C224.028 164.636 221.867 164.093 219.401 164.093C216.829 164.093 214.549 164.689 212.56 165.882C210.598 167.049 209.06 168.627 207.946 170.615C206.833 172.577 206.263 174.765 206.236 177.178V187.161C206.236 190.183 206.793 192.795 207.906 194.996C209.047 197.197 210.651 198.894 212.719 200.087C214.787 201.28 217.24 201.877 220.077 201.877C221.96 201.877 223.683 201.611 225.247 201.081C226.812 200.551 228.151 199.755 229.264 198.695C230.378 197.634 231.227 196.335 231.81 194.797L247.48 195.831C246.685 199.596 245.054 202.884 242.588 205.695C240.149 208.479 236.994 210.653 233.122 212.218C229.278 213.755 224.836 214.524 219.799 214.524ZM254.415 213.331V152.24H270.841V162.899H271.478C272.591 159.108 274.461 156.244 277.086 154.308C279.711 152.346 282.733 151.365 286.154 151.365C287.002 151.365 287.917 151.418 288.898 151.524C289.879 151.63 290.741 151.776 291.483 151.962V166.996C290.688 166.757 289.587 166.545 288.182 166.36C286.777 166.174 285.491 166.081 284.324 166.081C281.832 166.081 279.605 166.625 277.642 167.712C275.707 168.772 274.169 170.257 273.029 172.166C271.915 174.075 271.358 176.276 271.358 178.769V213.331H254.415ZM320.76 214.524C314.476 214.524 309.067 213.252 304.533 210.706C300.026 208.134 296.552 204.502 294.113 199.808C291.673 195.089 290.454 189.507 290.454 183.064C290.454 176.78 291.673 171.265 294.113 166.519C296.552 161.772 299.986 158.074 304.414 155.422C308.868 152.771 314.092 151.445 320.084 151.445C324.115 151.445 327.866 152.094 331.34 153.394C334.84 154.666 337.889 156.589 340.488 159.161C343.113 161.733 345.154 164.968 346.613 168.865C348.071 172.736 348.8 177.271 348.8 182.468V187.121H297.215V176.621H332.851C332.851 174.182 332.321 172.021 331.26 170.138C330.2 168.255 328.728 166.784 326.846 165.723C324.99 164.636 322.829 164.093 320.363 164.093C317.791 164.093 315.51 164.689 313.522 165.882C311.56 167.049 310.022 168.627 308.908 170.615C307.794 172.577 307.224 174.765 307.198 177.178V187.161C307.198 190.183 307.755 192.795 308.868 194.996C310.008 197.197 311.613 198.894 313.681 200.087C315.749 201.28 318.202 201.877 321.039 201.877C322.921 201.877 324.645 201.611 326.209 201.081C327.774 200.551 329.113 199.755 330.226 198.695C331.34 197.634 332.188 196.335 332.772 194.797L348.442 195.831C347.647 199.596 346.016 202.884 343.55 205.695C341.111 208.479 337.955 210.653 334.084 212.218C330.24 213.755 325.798 214.524 320.76 214.524ZM387.279 236.24C385.131 236.24 383.116 236.068 381.234 235.723C379.378 235.405 377.84 234.994 376.62 234.49L380.438 221.843C382.427 222.452 384.217 222.784 385.807 222.837C387.425 222.89 388.817 222.519 389.984 221.723C391.177 220.928 392.145 219.575 392.887 217.666L393.881 215.081L371.967 152.24H389.785L402.432 197.104H403.069L415.836 152.24H433.773L410.029 219.933C408.889 223.221 407.338 226.085 405.376 228.524C403.44 230.99 400.987 232.886 398.018 234.212C395.048 235.564 391.468 236.24 387.279 236.24ZM463.597 214.524C457.419 214.524 452.077 213.212 447.569 210.587C443.088 207.935 439.628 204.25 437.188 199.53C434.749 194.784 433.529 189.282 433.529 183.024C433.529 176.714 434.749 171.199 437.188 166.479C439.628 161.733 443.088 158.047 447.569 155.422C452.077 152.771 457.419 151.445 463.597 151.445C469.775 151.445 475.105 152.771 479.586 155.422C484.094 158.047 487.567 161.733 490.006 166.479C492.446 171.199 493.666 176.714 493.666 183.024C493.666 189.282 492.446 194.784 490.006 199.53C487.567 204.25 484.094 207.935 479.586 210.587C475.105 213.212 469.775 214.524 463.597 214.524ZM463.677 201.399C466.488 201.399 468.834 200.604 470.717 199.013C472.599 197.396 474.018 195.195 474.972 192.411C475.953 189.627 476.444 186.458 476.444 182.905C476.444 179.352 475.953 176.183 474.972 173.399C474.018 170.615 472.599 168.415 470.717 166.797C468.834 165.18 466.488 164.371 463.677 164.371C460.84 164.371 458.453 165.18 456.518 166.797C454.609 168.415 453.164 170.615 452.183 173.399C451.228 176.183 450.751 179.352 450.751 182.905C450.751 186.458 451.228 189.627 452.183 192.411C453.164 195.195 454.609 197.396 456.518 199.013C458.453 200.604 460.84 201.399 463.677 201.399ZM539.379 187.32V152.24H556.322V213.331H540.055V202.235H539.419C538.04 205.814 535.746 208.691 532.538 210.865C529.356 213.04 525.472 214.127 520.884 214.127C516.801 214.127 513.208 213.199 510.106 211.343C507.004 209.486 504.578 206.848 502.828 203.428C501.104 200.007 500.229 195.911 500.203 191.138V152.24H517.146V188.115C517.172 191.721 518.14 194.572 520.049 196.666C521.958 198.761 524.517 199.808 527.725 199.808C529.767 199.808 531.676 199.344 533.453 198.416C535.229 197.462 536.661 196.057 537.748 194.2C538.862 192.344 539.405 190.051 539.379 187.32ZM565.394 213.331V152.24H581.821V162.899H582.457C583.571 159.108 585.44 156.244 588.065 154.308C590.69 152.346 593.713 151.365 597.133 151.365C597.982 151.365 598.896 151.418 599.877 151.524C600.858 151.63 601.72 151.776 602.463 151.962V166.996C601.667 166.757 600.567 166.545 599.162 166.36C597.756 166.174 596.47 166.081 595.304 166.081C592.811 166.081 590.584 166.625 588.622 167.712C586.686 168.772 585.148 170.257 584.008 172.166C582.894 174.075 582.338 176.276 582.338 178.769V213.331H565.394ZM1035.58 213.331V152.24H1052.52V213.331H1035.58ZM1044.09 144.365C1041.57 144.365 1039.41 143.53 1037.61 141.86C1035.83 140.163 1034.94 138.134 1034.94 135.774C1034.94 133.441 1035.83 131.439 1037.61 129.769C1039.41 128.072 1041.57 127.223 1044.09 127.223C1046.61 127.223 1048.76 128.072 1050.53 129.769C1052.34 131.439 1053.24 133.441 1053.24 135.774C1053.24 138.134 1052.34 140.163 1050.53 141.86C1048.76 143.53 1046.61 144.365 1044.09 144.365ZM1112.45 169.661L1096.93 170.615C1096.67 169.29 1096.1 168.096 1095.22 167.036C1094.35 165.949 1093.2 165.087 1091.76 164.45C1090.36 163.788 1088.67 163.456 1086.71 163.456C1084.09 163.456 1081.87 164.013 1080.07 165.127C1078.27 166.214 1077.37 167.672 1077.37 169.502C1077.37 170.96 1077.95 172.193 1079.12 173.2C1080.28 174.208 1082.28 175.017 1085.12 175.627L1096.18 177.854C1102.12 179.074 1106.55 181.036 1109.46 183.74C1112.38 186.445 1113.84 189.998 1113.84 194.399C1113.84 198.403 1112.66 201.916 1110.3 204.939C1107.96 207.962 1104.76 210.322 1100.67 212.019C1096.62 213.689 1091.94 214.524 1086.63 214.524C1078.55 214.524 1072.1 212.841 1067.3 209.473C1062.53 206.079 1059.73 201.466 1058.91 195.632L1075.58 194.757C1076.08 197.223 1077.3 199.106 1079.24 200.405C1081.17 201.678 1083.65 202.314 1086.67 202.314C1089.64 202.314 1092.03 201.744 1093.83 200.604C1095.66 199.437 1096.59 197.939 1096.62 196.11C1096.59 194.572 1095.94 193.312 1094.67 192.331C1093.39 191.324 1091.43 190.555 1088.78 190.024L1078.2 187.916C1072.24 186.723 1067.79 184.655 1064.88 181.712C1061.99 178.769 1060.54 175.017 1060.54 170.456C1060.54 166.532 1061.6 163.151 1063.72 160.314C1065.87 157.477 1068.88 155.29 1072.75 153.752C1076.65 152.214 1081.21 151.445 1086.43 151.445C1094.15 151.445 1100.22 153.075 1104.65 156.337C1109.1 159.598 1111.7 164.04 1112.45 169.661ZM1129.93 214.365C1127.3 214.365 1125.05 213.437 1123.17 211.581C1121.31 209.699 1120.38 207.445 1120.38 204.82C1120.38 202.221 1121.31 199.994 1123.17 198.138C1125.05 196.282 1127.3 195.354 1129.93 195.354C1132.48 195.354 1134.7 196.282 1136.61 198.138C1138.52 199.994 1139.48 202.221 1139.48 204.82C1139.48 206.57 1139.02 208.174 1138.12 209.632C1137.25 211.064 1136.09 212.218 1134.66 213.093C1133.23 213.941 1131.65 214.365 1129.93 214.365Z" fill="white"/>
</g>
<g filter="url(#filter1_d_142_2)">
<path d="M521.508 113C517.22 113 514.361 111.526 512.932 108.578C511.503 105.63 510.788 101.476 510.788 96.1163C510.788 91.6496 510.654 87.9423 510.386 84.9943C510.118 82.0463 508.867 80.5723 506.634 80.5723C504.758 80.5723 503.418 81.2423 502.614 82.5823C501.899 83.9223 501.497 85.7536 501.408 88.0763C501.319 90.399 501.274 93.079 501.274 96.1163C501.274 99.243 501.051 102.101 500.604 104.692C500.247 107.193 499.309 109.203 497.79 110.722C496.361 112.151 494.038 112.866 490.822 112.866C487.695 112.866 485.149 111.749 483.184 109.516C481.308 107.283 479.879 104.335 478.896 100.672C477.913 97.0096 477.243 93.0343 476.886 88.7463C476.529 84.4583 476.35 80.2596 476.35 76.1503C476.35 68.6463 477.02 62.4376 478.36 57.5243C479.7 52.5216 482.559 49.395 486.936 48.1443C489.616 47.3403 492.162 47.2956 494.574 48.0103C496.986 48.725 498.594 50.065 499.398 52.0303C500.291 51.5836 501.363 51.137 502.614 50.6903C503.865 50.1543 505.83 49.8863 508.51 49.8863C511.19 49.8863 513.825 50.5563 516.416 51.8963C519.007 53.2363 520.883 55.2016 522.044 57.7923C524.188 55.291 526.466 53.3256 528.878 51.8963C531.29 50.467 534.595 49.797 538.794 49.8863C544.422 49.9756 549.246 51.7176 553.266 55.1123C557.286 58.4176 560.368 62.8843 562.512 68.5123C564.745 74.051 565.862 80.215 565.862 87.0043C565.862 91.3816 565.46 95.5803 564.656 99.6003C563.941 103.531 562.557 106.747 560.502 109.248C558.537 111.749 555.723 113 552.06 113C548.844 113 546.477 112.241 544.958 110.722C543.529 109.203 542.591 107.193 542.144 104.692C541.787 102.101 541.608 99.243 541.608 96.1163C541.608 93.079 541.563 90.399 541.474 88.0763C541.385 85.7536 540.983 83.9223 540.268 82.5823C539.553 81.2423 538.213 80.5723 536.248 80.5723C534.819 80.5723 533.836 81.2423 533.3 82.5823C532.764 83.9223 532.451 85.7536 532.362 88.0763C532.362 90.399 532.317 93.079 532.228 96.1163C532.139 101.476 531.335 105.63 529.816 108.578C528.387 111.526 525.617 113 521.508 113ZM603.414 113.134C596.804 113.223 590.997 111.883 585.994 109.114C581.081 106.255 577.195 102.414 574.336 97.5903C571.567 92.677 570.093 87.2723 569.914 81.3763C569.825 75.3016 571.21 69.9416 574.068 65.2963C576.927 60.5616 580.902 56.8096 585.994 54.0403C591.086 51.271 596.893 49.8863 603.414 49.8863C609.846 49.797 615.519 51.137 620.432 53.9063C625.435 56.6756 629.41 60.4276 632.358 65.1623C635.306 69.897 636.87 75.3016 637.048 81.3763C637.138 87.183 635.753 92.4983 632.894 97.3223C630.036 102.057 626.06 105.853 620.968 108.712C615.876 111.481 610.025 112.955 603.414 113.134ZM603.816 93.5703C606.228 93.5703 608.328 92.6323 610.114 90.7563C611.901 88.8803 612.794 86.6916 612.794 84.1903C612.794 81.689 611.901 79.545 610.114 77.7583C608.328 75.8823 606.228 74.9443 603.816 74.9443C601.404 74.9443 599.305 75.8823 597.518 77.7583C595.732 79.545 594.838 81.689 594.838 84.1903C594.838 86.6916 595.732 88.8803 597.518 90.7563C599.305 92.6323 601.404 93.5703 603.816 93.5703ZM694.032 113C690.459 113 687.913 112.017 686.394 110.052C684.965 107.997 684.116 105.451 683.848 102.414C683.58 99.2876 683.446 96.161 683.446 93.0343C683.446 88.2996 682.776 84.503 681.436 81.6443C680.096 78.6963 677.729 77.2223 674.334 77.2223C671.297 77.2223 669.063 78.6963 667.634 81.6443C666.205 84.503 665.49 88.2996 665.49 93.0343C665.49 96.161 665.356 99.243 665.088 102.28C664.909 105.317 664.105 107.863 662.676 109.918C661.247 111.883 658.656 112.866 654.904 112.866C652.135 112.866 649.812 111.839 647.936 109.784C646.149 107.729 644.765 105.049 643.782 101.744C642.799 98.439 642.085 94.8656 641.638 91.0243C641.281 87.183 641.102 83.4756 641.102 79.9023C641.102 76.329 641.281 72.6663 641.638 68.9143C641.995 65.1623 642.621 61.6783 643.514 58.4623C644.497 55.2463 645.881 52.6556 647.668 50.6903C649.455 48.725 651.777 47.7423 654.636 47.7423C659.728 47.7423 662.899 50.065 664.15 54.7103C665.222 53.549 666.919 52.477 669.242 51.4943C671.654 50.4223 674.379 49.8863 677.416 49.8863C684.295 49.8863 689.923 51.6283 694.3 55.1123C698.677 58.5963 701.849 63.4203 703.814 69.5843C705.869 75.659 706.851 82.7163 706.762 90.7563C706.762 94.8656 706.36 98.6176 705.556 102.012C704.841 105.317 703.546 107.997 701.67 110.052C699.883 112.017 697.337 113 694.032 113ZM744.484 113C737.784 113 731.888 111.705 726.796 109.114C721.793 106.434 717.863 102.816 715.004 98.2603C712.235 93.615 710.85 88.2996 710.85 82.3143C710.85 76.5076 712.235 71.1476 715.004 66.2343C717.863 61.321 721.749 57.3903 726.662 54.4423C731.665 51.4943 737.382 50.0203 743.814 50.0203C749.799 50.0203 754.936 51.2263 759.224 53.6383C763.512 56.0503 766.773 59.1323 769.006 62.8843C771.329 66.547 772.49 70.433 772.49 74.5423C772.49 78.6516 771.552 82.0463 769.676 84.7263C767.8 87.317 765.343 89.327 762.306 90.7563C759.358 92.0963 756.187 92.9896 752.792 93.4363C749.397 93.883 746.137 93.9723 743.01 93.7043C739.883 93.347 737.248 92.811 735.104 92.0963C736.712 94.687 738.722 96.4736 741.134 97.4563C743.635 98.3496 746.226 98.7516 748.906 98.6623C751.675 98.4836 754.177 98.171 756.41 97.7243C759.179 97.099 761.457 97.233 763.244 98.1263C765.031 99.0196 765.969 100.449 766.058 102.414C766.147 104.022 765.567 105.63 764.316 107.238C763.155 108.846 761.011 110.231 757.884 111.392C754.757 112.464 750.291 113 744.484 113ZM735.506 75.7483C736.399 77.1776 737.695 78.205 739.392 78.8303C741.089 79.3663 742.787 79.545 744.484 79.3663C746.271 79.1876 747.745 78.6963 748.906 77.8923C750.157 77.0883 750.782 75.9716 750.782 74.5423C750.782 73.0236 750.157 71.6836 748.906 70.5223C747.745 69.2716 745.869 68.6463 743.278 68.6463C740.777 68.6463 738.856 69.4503 737.516 71.0583C736.176 72.577 735.506 74.1403 735.506 75.7483ZM797.48 132.832C794.532 132.832 791.763 132.43 789.172 131.626C786.671 130.911 784.616 129.705 783.008 128.008C781.4 126.4 780.596 124.301 780.596 121.71C780.596 118.583 782.025 116.216 784.884 114.608C787.743 113 790.959 112.285 794.532 112.464C798.463 112.553 801.5 112.375 803.644 111.928C805.877 111.392 807.575 110.409 808.736 108.98C800.517 108.98 793.951 107.774 789.038 105.362C784.125 102.95 780.551 99.1983 778.318 94.1063C776.174 89.0143 775.102 82.4036 775.102 74.2743C775.102 69.897 775.549 65.9216 776.442 62.3483C777.335 58.6856 778.765 55.7823 780.73 53.6383C782.785 51.405 785.465 50.2883 788.77 50.2883C793.237 50.2883 796.408 51.5836 798.284 54.1743C800.16 56.6756 801.098 59.6236 801.098 63.0183C801.098 66.0556 801.053 69.0483 800.964 71.9963C800.875 74.855 800.964 77.401 801.232 79.6343C801.5 81.8676 802.215 83.6543 803.376 84.9943C804.537 86.3343 806.369 87.0043 808.87 87.0043C811.371 87.0043 813.203 86.3343 814.364 84.9943C815.525 83.6543 816.24 81.8676 816.508 79.6343C816.776 77.401 816.865 74.8996 816.776 72.1303C816.687 69.2716 816.642 66.3236 816.642 63.2863C816.642 59.5343 817.58 56.4523 819.456 54.0403C821.421 51.539 824.593 50.2883 828.97 50.2883C832.365 50.2883 835.045 51.405 837.01 53.6383C839.065 55.7823 840.539 58.6856 841.432 62.3483C842.325 65.9216 842.772 69.897 842.772 74.2743C842.772 81.5996 841.968 88.791 840.36 95.8483C838.841 102.816 836.295 109.069 832.722 114.608C829.238 120.147 824.593 124.569 818.786 127.874C813.069 131.179 805.967 132.832 797.48 132.832Z" fill="#41F7B5"/>
</g>
<g filter="url(#filter2_d_142_2)">
<path d="M674.508 214C670.22 214 667.361 212.526 665.932 209.578C664.503 206.63 663.788 202.476 663.788 197.116C663.788 192.649 663.654 188.942 663.386 185.994C663.118 183.046 661.867 181.572 659.634 181.572C657.758 181.572 656.418 182.242 655.614 183.582C654.899 184.922 654.497 186.753 654.408 189.076C654.319 191.399 654.274 194.079 654.274 197.116C654.274 200.243 654.051 203.101 653.604 205.692C653.247 208.193 652.309 210.203 650.79 211.722C649.361 213.151 647.038 213.866 643.822 213.866C640.695 213.866 638.149 212.749 636.184 210.516C634.308 208.283 632.879 205.335 631.896 201.672C630.913 198.009 630.243 194.034 629.886 189.746C629.529 185.458 629.35 181.259 629.35 177.15C629.35 169.646 630.02 163.437 631.36 158.524C632.7 153.521 635.559 150.395 639.936 149.144C642.616 148.34 645.162 148.295 647.574 149.01C649.986 149.725 651.594 151.065 652.398 153.03C653.291 152.583 654.363 152.137 655.614 151.69C656.865 151.154 658.83 150.886 661.51 150.886C664.19 150.886 666.825 151.556 669.416 152.896C672.007 154.236 673.883 156.201 675.044 158.792C677.188 156.291 679.466 154.325 681.878 152.896C684.29 151.467 687.595 150.797 691.794 150.886C697.422 150.975 702.246 152.717 706.266 156.112C710.286 159.417 713.368 163.884 715.512 169.512C717.745 175.051 718.862 181.215 718.862 188.004C718.862 192.381 718.46 196.58 717.656 200.6C716.941 204.531 715.557 207.747 713.502 210.248C711.537 212.749 708.723 214 705.06 214C701.844 214 699.477 213.241 697.958 211.722C696.529 210.203 695.591 208.193 695.144 205.692C694.787 203.101 694.608 200.243 694.608 197.116C694.608 194.079 694.563 191.399 694.474 189.076C694.385 186.753 693.983 184.922 693.268 183.582C692.553 182.242 691.213 181.572 689.248 181.572C687.819 181.572 686.836 182.242 686.3 183.582C685.764 184.922 685.451 186.753 685.362 189.076C685.362 191.399 685.317 194.079 685.228 197.116C685.139 202.476 684.335 206.63 682.816 209.578C681.387 212.526 678.617 214 674.508 214ZM756.414 214.134C749.804 214.223 743.997 212.883 738.994 210.114C734.081 207.255 730.195 203.414 727.336 198.59C724.567 193.677 723.093 188.272 722.914 182.376C722.825 176.301 724.21 170.941 727.068 166.296C729.927 161.561 733.902 157.809 738.994 155.04C744.086 152.271 749.893 150.886 756.414 150.886C762.846 150.797 768.519 152.137 773.432 154.906C778.435 157.675 782.41 161.427 785.358 166.162C788.306 170.897 789.87 176.301 790.048 182.376C790.138 188.183 788.753 193.498 785.894 198.322C783.036 203.057 779.06 206.853 773.968 209.712C768.876 212.481 763.025 213.955 756.414 214.134ZM756.816 194.57C759.228 194.57 761.328 193.632 763.114 191.756C764.901 189.88 765.794 187.691 765.794 185.19C765.794 182.689 764.901 180.545 763.114 178.758C761.328 176.882 759.228 175.944 756.816 175.944C754.404 175.944 752.305 176.882 750.518 178.758C748.732 180.545 747.838 182.689 747.838 185.19C747.838 187.691 748.732 189.88 750.518 191.756C752.305 193.632 754.404 194.57 756.816 194.57ZM826.53 214C819.919 214 814.157 212.392 809.244 209.176C804.42 205.871 800.668 201.315 797.988 195.508C795.397 189.612 794.102 182.823 794.102 175.14C794.102 167.636 795.263 161.74 797.586 157.452C799.998 153.164 803.393 151.02 807.77 151.02C810.897 151.02 813.264 151.601 814.872 152.762C816.569 153.923 817.686 155.397 818.222 157.184C818.847 158.881 819.16 160.713 819.16 162.678C819.16 165.179 818.981 167.725 818.624 170.316C818.356 172.907 818.222 175.676 818.222 178.624C818.222 182.823 819.071 185.905 820.768 187.87C822.555 189.746 824.475 190.684 826.53 190.684C828.763 190.684 830.684 189.746 832.292 187.87C833.989 185.905 834.838 182.823 834.838 178.624C834.838 175.676 834.704 173.041 834.436 170.718C834.168 168.395 834.034 165.76 834.034 162.812C834.034 159.685 834.793 156.961 836.312 154.638C837.831 152.226 840.868 151.02 845.424 151.02C849.801 151.02 853.151 153.164 855.474 157.452C857.797 161.74 858.958 167.636 858.958 175.14C858.958 182.823 857.752 189.612 855.34 195.508C852.928 201.315 849.31 205.871 844.486 209.176C839.751 212.392 833.766 214 826.53 214ZM907.883 214C904.756 214 901.585 213.375 898.369 212.124C895.153 210.873 892.249 209.042 889.659 206.63C887.157 204.218 885.326 201.315 884.165 197.92C883.361 195.687 882.78 192.917 882.423 189.612C882.065 186.307 881.797 182.778 881.619 179.026C881.529 175.274 881.485 171.611 881.485 168.038C878.001 167.949 874.651 167.636 871.435 167.1C868.308 166.564 865.717 165.581 863.663 164.152C861.697 162.633 860.715 160.445 860.715 157.586C860.715 154.102 861.653 151.511 863.529 149.814C865.405 148.027 867.906 146.866 871.033 146.33C874.249 145.705 877.733 145.347 881.485 145.258C881.574 142.489 881.797 139.675 882.155 136.816C882.601 133.868 883.316 131.143 884.299 128.642C885.281 126.141 886.666 124.131 888.453 122.612C890.239 121.004 892.562 120.2 895.421 120.2C899.262 120.2 902.031 121.406 903.729 123.818C905.515 126.23 906.632 129.357 907.079 133.198C907.525 137.039 907.704 141.059 907.615 145.258C912.26 145.169 916.369 145.347 919.943 145.794C923.516 146.241 926.33 147.223 928.385 148.742C930.439 150.261 931.467 152.673 931.467 155.978C931.467 159.373 930.305 161.919 927.983 163.616C925.66 165.313 922.623 166.475 918.871 167.1C915.119 167.636 911.143 167.949 906.945 168.038C906.945 169.735 906.9 171.522 906.811 173.398C906.811 175.185 906.811 177.016 906.811 178.892C906.811 183.984 907.168 187.602 907.883 189.746C908.419 191.354 909.133 192.381 910.027 192.828C911.009 193.275 912.215 193.543 913.645 193.632C915.074 193.632 916.816 193.9 918.871 194.436C920.925 194.883 922.533 195.999 923.695 197.786C924.856 199.483 925.437 201.672 925.437 204.352C925.437 207.389 923.829 209.757 920.613 211.454C917.486 213.151 913.243 214 907.883 214ZM951.641 214C947.174 214 943.78 212.258 941.457 208.774C939.134 205.29 937.571 199.885 936.767 192.56C935.963 185.145 935.561 175.587 935.561 163.884C935.561 155.129 935.784 147.491 936.231 140.97C936.767 134.449 938.107 129.357 940.251 125.694C942.395 122.031 945.834 120.2 950.569 120.2C954.232 120.2 957.001 121.227 958.877 123.282C960.753 125.247 962.004 127.883 962.629 131.188C963.344 134.404 963.746 137.977 963.835 141.908C963.924 145.749 963.969 149.591 963.969 153.432C965.488 152.717 966.917 152.137 968.257 151.69C969.686 151.243 971.92 151.02 974.957 151.02C981.3 151.02 986.615 152.583 990.903 155.71C995.191 158.837 998.452 162.991 1000.68 168.172C1002.92 173.353 1004.03 179.071 1004.03 185.324C1004.03 188.54 1003.9 191.801 1003.63 195.106C1003.36 198.411 1002.78 201.449 1001.89 204.218C1001 206.987 999.702 209.265 998.005 211.052C996.308 212.749 994.03 213.598 991.171 213.598C987.508 213.598 984.784 212.794 982.997 211.186C981.3 209.489 980.228 207.121 979.781 204.084C979.334 200.957 979.111 197.339 979.111 193.23C979.111 188.495 978.575 184.565 977.503 181.438C976.52 178.311 974.555 176.748 971.607 176.748C968.659 176.748 966.604 178.311 965.443 181.438C964.371 184.565 963.79 188.495 963.701 193.23C963.701 197.339 963.433 200.957 962.897 204.084C962.45 207.211 961.378 209.667 959.681 211.454C957.984 213.151 955.304 214 951.641 214Z" fill="#8D3DF2"/>
</g>
</g>
<defs>
<filter id="filter0_d_142_2" x="0.1875" y="0.876953" width="1176.29" height="273.363" filterUnits="userSpaceOnUse" color-interpolation-filters="sRGB">
<feFlood flood-opacity="0" result="BackgroundImageFix"/>
<feColorMatrix in="SourceAlpha" type="matrix" values="0 0 0 0 0 0 0 0 0 0 0 0 0 0 0 0 0 0 127 0" result="hardAlpha"/>
<feOffset dx="3" dy="4"/>
<feGaussianBlur stdDeviation="17"/>
<feComposite in2="hardAlpha" operator="out"/>
<feColorMatrix type="matrix" values="0 0 0 0 0.0196078 0 0 0 0 0.0313726 0 0 0 0 0.113725 0 0 0 0.2 0"/>
<feBlend mode="normal" in2="BackgroundImageFix" result="effect1_dropShadow_142_2"/>
<feBlend mode="normal" in="SourceGraphic" in2="effect1_dropShadow_142_2" result="shape"/>
</filter>
<filter id="filter1_d_142_2" x="445.35" y="17.5059" width="434.422" height="153.326" filterUnits="userSpaceOnUse" color-interpolation-filters="sRGB">
<feFlood flood-opacity="0" result="BackgroundImageFix"/>
<feColorMatrix in="SourceAlpha" type="matrix" values="0 0 0 0 0 0 0 0 0 0 0 0 0 0 0 0 0 0 127 0" result="hardAlpha"/>
<feOffset dx="3" dy="4"/>
<feGaussianBlur stdDeviation="17"/>
<feComposite in2="hardAlpha" operator="out"/>
<feColorMatrix type="matrix" values="0 0 0 0 0.0196078 0 0 0 0 0.0313726 0 0 0 0 0.113725 0 0 0 0.2 0"/>
<feBlend mode="normal" in2="BackgroundImageFix" result="effect1_dropShadow_142_2"/>
<feBlend mode="normal" in="SourceGraphic" in2="effect1_dropShadow_142_2" result="shape"/>
</filter>
<filter id="filter2_d_142_2" x="598.35" y="90.2002" width="442.68" height="161.938" filterUnits="userSpaceOnUse" color-interpolation-filters="sRGB">
<feFlood flood-opacity="0" result="BackgroundImageFix"/>
<feColorMatrix in="SourceAlpha" type="matrix" values="0 0 0 0 0 0 0 0 0 0 0 0 0 0 0 0 0 0 127 0" result="hardAlpha"/>
<feOffset dx="3" dy="4"/>
<feGaussianBlur stdDeviation="17"/>
<feComposite in2="hardAlpha" operator="out"/>
<feColorMatrix type="matrix" values="0 0 0 0 0.0196078 0 0 0 0 0.0313726 0 0 0 0 0.113725 0 0 0 0.2 0"/>
<feBlend mode="normal" in2="BackgroundImageFix" result="effect1_dropShadow_142_2"/>
<feBlend mode="normal" in="SourceGraphic" in2="effect1_dropShadow_142_2" result="shape"/>
</filter>
<clipPath id="clip0_142_2">
<rect width="1177" height="275" fill="white"/>
</clipPath>
</defs>
</svg>
