<svg width="24" height="24" viewBox="0 0 24 24" fill="none" xmlns="http://www.w3.org/2000/svg">
<g id="Icons" clip-path="url(#clip0_222_2917)">
<path id="Vector (Stroke)" fill-rule="evenodd" clip-rule="evenodd" d="M6 5C5.46957 5 4.96086 5.21071 4.58579 5.58579C4.21071 5.96086 4 6.46957 4 7V15C4 15.5304 4.21071 16.0391 4.58579 16.4142C4.96086 16.7893 5.46957 17 6 17H8C8.55228 17 9 17.4477 9 18V19.2338L12.4855 17.1425C12.6409 17.0493 12.8188 17 13 17H14C14.5523 17 15 17.4477 15 18C15 18.5523 14.5523 19 14 19H13.277L8.5145 21.8575C8.20556 22.0429 7.82081 22.0477 7.5073 21.8702C7.19379 21.6927 7 21.3603 7 21V19H6C4.93913 19 3.92172 18.5786 3.17157 17.8284C2.42143 17.0783 2 16.0609 2 15V7C2 5.93913 2.42143 4.92172 3.17157 4.17157C3.92172 3.42143 4.93913 3 6 3H18C19.0609 3 20.0783 3.42143 20.8284 4.17157C21.5786 4.92172 22 5.93913 22 7V11.5C22 12.0523 21.5523 12.5 21 12.5C20.4477 12.5 20 12.0523 20 11.5V7C20 6.46957 19.7893 5.96086 19.4142 5.58579C19.0391 5.21071 18.5304 5 18 5H6ZM7 9C7 8.44772 7.44772 8 8 8H16C16.5523 8 17 8.44772 17 9C17 9.55228 16.5523 10 16 10H8C7.44772 10 7 9.55228 7 9ZM7 13C7 12.4477 7.44772 12 8 12H14C14.5523 12 15 12.4477 15 13C15 13.5523 14.5523 14 14 14H8C7.44772 14 7 13.5523 7 13ZM18.4266 14.0582C19.0863 13.9262 19.7712 14.0213 20.3699 14.328L20.3735 14.3298C20.9705 14.6387 21.4466 15.1389 21.7256 15.7503C22.0046 16.3618 22.0705 17.0491 21.9126 17.7024C21.7547 18.3558 21.3822 18.9372 20.8547 19.3538C20.3273 19.7703 19.6753 19.9979 19.0032 20C18.4509 20.0018 18.0018 19.5555 18 19.0032C17.9982 18.4509 18.4445 18.0018 18.9968 18C19.2213 17.9993 19.439 17.9233 19.6152 17.7842C19.7914 17.645 19.9158 17.4508 19.9685 17.2326C20.0213 17.0144 19.9993 16.7848 19.9061 16.5806C19.8132 16.377 19.6548 16.2104 19.4563 16.1071C19.2598 16.007 19.0353 15.976 18.819 16.0193C18.6021 16.0627 18.4062 16.1782 18.2633 16.3471C17.9064 16.7686 17.2755 16.8211 16.8539 16.4643C16.4324 16.1075 16.3799 15.4765 16.7367 15.0549C17.1714 14.5415 17.767 14.1901 18.4266 14.0582ZM19 21C19.5523 21 20 21.4477 20 22V22.01C20 22.5623 19.5523 23.01 19 23.01C18.4477 23.01 18 22.5623 18 22.01V22C18 21.4477 18.4477 21 19 21Z" fill="#05081D"/>
</g>
<defs>
<clipPath id="clip0_222_2917">
<rect width="24" height="24" fill="white"/>
</clipPath>
</defs>
</svg>
