<svg width="18" height="18" viewBox="0 0 18 18" fill="none" xmlns="http://www.w3.org/2000/svg">
<g id="Icons">
<path id="Vector (Stroke)" fill-rule="evenodd" clip-rule="evenodd" d="M5.10823 1.72575C5.86651 1.41166 6.67924 1.25 7.5 1.25C8.32076 1.25 9.13349 1.41166 9.89177 1.72575C10.6501 2.03984 11.3391 2.50022 11.9194 3.08058C12.4998 3.66095 12.9602 4.34994 13.2742 5.10823C13.5883 5.86651 13.75 6.67924 13.75 7.5C13.75 8.32076 13.5883 9.13349 13.2742 9.89177C13.0886 10.3399 12.8519 10.7638 12.5696 11.1554L16.4571 15.0429C16.8476 15.4334 16.8476 16.0666 16.4571 16.4571C16.0666 16.8476 15.4334 16.8476 15.0429 16.4571L11.1554 12.5696C10.7638 12.8519 10.3399 13.0886 9.89177 13.2742C9.13349 13.5883 8.32076 13.75 7.5 13.75C6.67924 13.75 5.86651 13.5883 5.10823 13.2742C4.34994 12.9602 3.66095 12.4998 3.08058 11.9194C2.50022 11.3391 2.03984 10.6501 1.72575 9.89177C1.41166 9.13349 1.25 8.32076 1.25 7.5C1.25 6.67924 1.41166 5.86651 1.72575 5.10823C2.03984 4.34994 2.50022 3.66095 3.08058 3.08058C3.66095 2.50022 4.34994 2.03984 5.10823 1.72575ZM7.5 3.25C6.94188 3.25 6.38923 3.35993 5.8736 3.57351C5.35796 3.78709 4.88945 4.10015 4.4948 4.4948C4.10015 4.88945 3.78709 5.35796 3.57351 5.8736C3.35993 6.38923 3.25 6.94188 3.25 7.5C3.25 8.05812 3.35993 8.61077 3.57351 9.1264C3.78709 9.64204 4.10015 10.1106 4.4948 10.5052C4.88945 10.8999 5.35796 11.2129 5.8736 11.4265C6.38923 11.6401 6.94188 11.75 7.5 11.75C8.05812 11.75 8.61077 11.6401 9.1264 11.4265C9.64204 11.2129 10.1106 10.8999 10.5052 10.5052C10.8999 10.1106 11.2129 9.64204 11.4265 9.1264C11.6401 8.61077 11.75 8.05812 11.75 7.5C11.75 6.94188 11.6401 6.38923 11.4265 5.8736C11.2129 5.35796 10.8999 4.88945 10.5052 4.4948C10.1106 4.10015 9.64204 3.78709 9.1264 3.57351C8.61077 3.35993 8.05812 3.25 7.5 3.25Z" fill="#6971BE"/>
</g>
</svg>
