<svg width="18" height="18" viewBox="0 0 18 18" fill="none" xmlns="http://www.w3.org/2000/svg">
<g id="Icons">
<path id="Vector (Stroke)" fill-rule="evenodd" clip-rule="evenodd" d="M2.25012 4.5C2.25012 4.08579 2.58591 3.75 3.00012 3.75H9.75012C10.1643 3.75 10.5001 4.08579 10.5001 4.5C10.5001 4.91421 10.1643 5.25 9.75012 5.25H3.00012C2.58591 5.25 2.25012 4.91421 2.25012 4.5ZM13.5001 3.75C13.9143 3.75 14.2501 4.08579 14.2501 4.5V11.6893L15.2198 10.7197C15.5127 10.4268 15.9876 10.4268 16.2805 10.7197C16.5733 11.0126 16.5733 11.4874 16.2805 11.7803L14.0305 14.0303C13.7376 14.3232 13.2627 14.3232 12.9698 14.0303L10.7198 11.7803C10.4269 11.4874 10.4269 11.0126 10.7198 10.7197C11.0127 10.4268 11.4876 10.4268 11.7805 10.7197L12.7501 11.6893V4.5C12.7501 4.08579 13.0859 3.75 13.5001 3.75ZM2.25012 9C2.25012 8.58579 2.58591 8.25 3.00012 8.25H8.25012C8.66434 8.25 9.00012 8.58579 9.00012 9C9.00012 9.41421 8.66434 9.75 8.25012 9.75H3.00012C2.58591 9.75 2.25012 9.41421 2.25012 9ZM2.25012 13.5C2.25012 13.0858 2.58591 12.75 3.00012 12.75H8.25012C8.66434 12.75 9.00012 13.0858 9.00012 13.5C9.00012 13.9142 8.66434 14.25 8.25012 14.25H3.00012C2.58591 14.25 2.25012 13.9142 2.25012 13.5Z" fill="#6971BE"/>
</g>
</svg>
